<?xml version="1.0" standalone="no"?>
<!DOCTYPE svg PUBLIC "-//W3C//DTD SVG 20010904//EN"
 "http://www.w3.org/TR/2001/REC-SVG-20010904/DTD/svg10.dtd">
<svg version="1.0" xmlns="http://www.w3.org/2000/svg"
 width="512.000000pt" height="512.000000pt" viewBox="0 0 512.000000 512.000000"
 preserveAspectRatio="xMidYMid meet">

<g transform="translate(0.000000,512.000000) scale(0.100000,-0.100000)"
fill="#000000" stroke="none">
<path d="M3881 4454 c-29 -8 -86 -31 -125 -51 -66 -34 -148 -113 -1149 -1112
-593 -592 -1094 -1099 -1113 -1127 -64 -92 -79 -155 -135 -548 -57 -399 -57
-406 -3 -438 30 -18 37 -17 385 33 408 58 420 60 514 106 66 33 134 99 1166
1131 1046 1046 1098 1100 1132 1169 118 240 74 508 -114 693 -65 64 -166 121
-255 144 -77 20 -230 20 -303 0z m311 -229 c109 -53 185 -154 209 -277 23
-113 -26 -249 -122 -344 l-49 -49 -260 260 c-143 143 -260 265 -260 271 0 15
85 94 133 123 64 39 115 51 207 48 69 -3 96 -9 142 -32z m-374 -558 l262 -262
-870 -870 -870 -870 -265 265 -265 265 867 867 c478 478 870 868 873 868 3 0
123 -118 268 -263z m-1890 -1890 c198 -198 250 -256 240 -264 -29 -24 -125
-45 -363 -78 -137 -19 -253 -35 -256 -35 -3 0 12 123 33 273 37 252 61 357 85
357 4 0 122 -114 261 -253z"/>
<path d="M1519 4340 c-363 -43 -679 -298 -797 -645 -48 -143 -47 -117 -47
-1210 l0 -1030 23 -89 c91 -360 374 -632 740 -714 70 -15 169 -17 1092 -17
956 0 1020 1 1095 19 178 41 323 118 452 240 135 127 215 256 270 433 l27 88
4 413 3 412 -105 0 -106 0 0 -360 c0 -388 -6 -452 -55 -573 -55 -135 -185
-283 -316 -360 -35 -21 -100 -50 -144 -65 l-80 -27 -1015 -3 c-1145 -3 -1091
-6 -1255 73 -199 97 -335 262 -398 484 -22 76 -22 81 -22 1071 0 1117 -3 1068
74 1226 79 163 188 272 346 349 147 71 180 75 604 75 l371 0 0 110 0 110 -347
-1 c-192 -1 -378 -5 -414 -9z"/>
</g>
</svg>
