<?xml version="1.0" standalone="yes"?>
<svg xmlns="http://www.w3.org/2000/svg" width="300" height="300">
<path style="fill:#ffffff; stroke:none;" d="M0 0L0 300L300 300L300 0L0 0z"/>
<path style="fill:#afafaf; stroke:none;" d="M126 12L126.778 12.7222L127.306 12.75L128.056 12.9445L128.972 12.9722L131 13L130.222 12.2778L129.694 12.25L128.944 12.0555L128.028 12.0278L126 12z"/>
<path style="fill:#878787; stroke:none;" d="M131 12L131.778 12.7222L132.306 12.75L133.111 12.9445L134.028 12.9722L136 13L138 13L143 13L142.222 12.2778L141.694 12.25L140.889 12.0555L139.972 12.0278L138 12L136 12L131 12z"/>
<path style="fill:#636363; stroke:none;" d="M143 12L143.778 12.7222L144.306 12.75L145.111 12.9445L146.028 12.9722L148 13L149 13L151 13L168 13L167.222 12.2778L166.694 12.25L165.889 12.0555L164.972 12.0278L163 12L162 12L160 12L143 12z"/>
<path style="fill:#909090; stroke:none;" d="M168 12L168.722 12.7222L169.25 12.75L171 13L170.278 12.2778L169.75 12.25L168 12z"/>
<path style="fill:#dbdbdb; stroke:none;" d="M171.667 12.3333L171.667 12.6667L172.333 12.6667L172.333 12.3333L171.667 12.3333z"/>
<path style="fill:#898989; stroke:none;" d="M124 13L125 14L124 13z"/>
<path style="fill:#4b4b4b; stroke:none;" d="M114 46L112.5 46.4444L111.944 46.6667L110 47.3889L109 47.8333L108 48.25L107 48.7778L105 49.7778L104 50.2222L103 50.7778L102 51.2222L100 52.2222L99 52.7778L98 53.2222L96 54.25L95 54.8333L94 55.3889L92 56.6667L90 58L86 60.6667L84 62L82 63.3056L81 63.8889L79 64.6111L77 64.5L75 63.7222L74 63.1667L73 62.6111L71 61.3889L69 60.25L67 59.2222L66 58.75L64 57.6111L62 56.3889L61 55.8333L60 55.2778L59 54.8333L58 54.3889L57 54.0278L55 53.3333L53 52.6944L52 52.4167L50 52.0833L48 52L46 52.0278L45 52.0833L44 52.25L43 52.4722L42 52.8611L41 53.2778L39 54.4722L37.0278 56.0833L36.0833 57.0278L35.2222 58L33.6389 60L32.1667 62L31.4444 63L30.8333 64L30.1944 65L29.6111 66L28.3889 68L27.8056 69L26.6111 71L25.3889 73L24.8056 74L23.6111 76L22.3889 78L21.25 80L20.7778 81L19.75 83L18.6111 85L17.3889 87L16.25 89L15.7778 90L15.25 91L14.8333 92L14.3889 93L13.6944 95L13.4167 96L13.0833 98L13.0278 99L13 100L13 102L13 103L13.0833 105L13.4167 107L13.7222 108L14.5556 110L15.7222 111.972L16.4167 112.917L18.0833 114.611L19.0278 115.361L21 116.861L22 117.611L23 118.306L25 119.611L26 120.194L28 121.389L30 122.611L31 123.194L32 123.806L34 125L35 125.611L37 126.833L38 127.472L39.8889 129.083L40.6667 130.028L41.6667 132L41.8889 133L41.9167 135L41.6111 137L41.3889 138L41.0833 140L41.0278 141L41 143L41 144L41 149L41 152L41 153L41.0278 155L41.0833 156L41.3889 158L41.7778 160L41.9167 161L42 163L42 164L41.9722 166L41.6667 168L41.2778 169L39.8889 170.917L38 172.528L37 173.167L36 173.806L34 175L32 176.167L31 176.75L30 177.25L28 178.389L27 179.028L26 179.667L25 180.333L23 181.667L21 183L20 183.694L19.0278 184.417L18.0833 185.222L16.4167 187.028L15.7222 188L14.5556 190L14.0833 191L13.4167 193L13.2222 194L13.0833 195L13 197L13 198L13 199L13.0278 201L13.0833 202L13.4167 204L13.6944 205L14.3889 207L14.8333 208L15.25 209L15.7778 210L16.25 211L16.8333 212L17.3889 213L18.6111 215L19.75 217L20.25 218L21.3889 220L22.6111 222L23.75 224L24.25 225L25.3889 227L26.6111 229L27.75 231L28.25 232L29.3889 234L30.6111 236L31.1944 237L32.4444 239L33.1667 240L34.6389 241.972L35.3889 242.917L37.0833 244.528L38.0278 245.139L40 246.222L42 247.139L43 247.528L45 247.917L47 248L48 248L49 248L51 247.917L53 247.583L54 247.306L56 246.611L57 246.167L58 245.75L59 245.222L60 244.778L61 244.222L63 243.222L64 242.75L65 242.167L66 241.611L68 240.389L69 239.806L71 238.611L73 237.389L74 236.806L75 236.194L76 235.639L77 235.111L79 234.639L80 234.833L81 235.333L83 236.806L85 238.306L86 239L88 240.333L90 241.667L92 242.972L93 243.611L95 244.75L96 245.25L98 246.389L100 247.611L102 248.75L103 249.222L104 249.75L105 250.167L106 250.611L108 251.389L110 252.25L110.944 252.75L111.944 253.167L112.5 253.5L114 254L114 264L114 267L114 268L114.028 270L114.083 271L114.417 273L114.694 274L115.389 276L115.833 277L116.278 278L117.472 280L119.083 281.972L120.028 282.917L122 284.528L123 285.139L125 286.139L126 286.528L127 286.75L128 286.917L130 287L131 287L133 287L137 287L166 287L168 287L169 287L171 286.972L172 286.917L174 286.583L176 285.917L177.972 284.917L178.917 284.278L180.611 282.778L181.361 281.917L182.833 280L183.528 279L184.583 277L185.306 275L185.583 274L185.778 273L185.917 272L186 270L186 269L186 268L186 265L186 254L187.5 253.556L188.056 253.333L190 252.611L191 252.167L192 251.75L193 251.222L195 250.222L196 249.778L197 249.222L198 248.778L200 247.778L201 247.222L202 246.778L204 245.75L205 245.167L206 244.611L208 243.333L210 242L214 239.333L216 238L218 236.694L219 236.111L221 235.389L223 235.5L224 235.861L225 236.278L227 237.389L229 238.611L230 239.167L231 239.75L232 240.25L234 241.389L236 242.611L237 243.167L238 243.75L239 244.222L241 245.222L242 245.75L244 246.611L246 247.306L247 247.583L249 247.917L250 247.972L252 248L253 248L255 247.917L257 247.528L258 247.139L260 246.222L261.972 245.139L262.917 244.528L264.611 242.917L265.361 241.972L266.833 240L267.556 239L268.806 237L269.389 236L270.611 234L271.75 232L272.25 231L273.389 229L274.611 227L275.75 225L276.25 224L277.389 222L278.611 220L279.75 218L280.25 217L281.389 215L282.611 213L283.75 211L284.75 209L285.167 208L285.611 207L286.306 205L286.583 204L286.917 202L287 200L287 199L287 198L287 197L286.917 195L286.583 193L286.278 192L285.444 190L284.278 188.028L283.583 187.083L281.917 185.389L280.972 184.639L279 183.139L278 182.389L277 181.694L275 180.389L274 179.806L272 178.611L270 177.389L269 176.806L268 176.194L266 175L265 174.389L263 173.167L262 172.528L260.111 170.917L259.333 169.972L258.333 168L258.111 167L258.028 165L258.083 164L258.389 162L258.611 161L258.917 159L258.972 158L259 157L259 155L259 149L259 144L259 142L258.972 141L258.917 140L258.611 138L258.389 137L258.222 136L258.056 134L258.333 132L259.333 130.028L261.028 128.25L262 127.472L264 126.194L265 125.611L267 124.389L268 123.833L269 123.25L270 122.75L272 121.611L273 120.972L274 120.333L275 119.667L277 118.333L279 117L280 116.306L280.972 115.583L281.917 114.778L283.583 112.972L284.278 112L285.444 110L285.917 109L286.583 107L286.917 105L287 103L287 102L287 101L287 100L286.917 98L286.583 96L286.306 95L285.611 93L285.167 92L284.75 91L284.222 90L283.778 89L283.222 88L282.75 87L281.611 85L280.389 83L279.25 81L278.75 80L277.611 78L276.389 76L275.25 74L274.75 73L273.611 71L272.389 69L271.194 67L269.972 65L268.611 63L267.861 62L266.361 60L265.611 59L263.917 57.0278L262 55.25L261 54.4722L259 53.2778L258 52.8611L257 52.4722L256 52.25L255 52.0833L253 52L252 52L251 52L249 52.0833L247 52.4722L246 52.8333L244 53.6111L242 54.4167L240 55.4167L238 56.6111L236 57.75L235 58.2222L234 58.7778L233 59.2222L231 60.25L230 60.8333L229 61.3889L227 62.6111L226 63.1944L225 63.8056L224 64.3611L223 64.8889L221 65.3611L219 64.6667L217 63.1944L216 62.3889L214 60.8611L212 59.4444L210 58.1944L209 57.6111L207 56.3889L205 55.1944L204 54.6111L202 53.3889L201 52.8333L200 52.25L198 51.2222L197 50.7778L196 50.2222L194 49.25L193 48.8333L192 48.3889L190 47.6111L188.056 46.8056L187.5 46.5L186 46L186 36L186 34L186 33L185.972 31L185.917 30L185.611 28L185.361 27L184.833 25L184.556 24L183.722 22L182.528 20L180.917 18.0278L179.972 17.0833L178 15.4722L177 14.8611L175 13.8611L174 13.4722L173 13.25L172 13.0833L170 13L169 13L167 13L164 13L139 13L131 13L129 13L128 13.0278L127 13.0833L125 13.5L123 14.5L121 16.0833L119.028 18L118.083 19L116.5 21L115.944 22L115.472 23L114.861 25L114.639 26L114.389 27L114.083 29L114.028 30L114 32L114 33L114 35L114 46z"/>
<path style="fill:#939393; stroke:none;" d="M174 13L175 14L174 13z"/>
<path style="fill:#c0c0c0; stroke:none;" d="M122 14L123 15L122 14z"/>
<path style="fill:#9b9b9b; stroke:none;" d="M176 14L177 15L176 14z"/>
<path style="fill:#a6a6a6; stroke:none;" d="M121 15L122 16L121 15z"/>
<path style="fill:#8e8e8e; stroke:none;" d="M120 16L121 17L120 16z"/>
<path style="fill:#bbbbbb; stroke:none;" d="M179 16L180 17L179 16z"/>
<path style="fill:#8e8e8e; stroke:none;" d="M119 17L120 18L119 17z"/>
<path style="fill:#b1b1b1; stroke:none;" d="M180 17L181 18L180 17z"/>
<path style="fill:#9d9d9d; stroke:none;" d="M118 18L119 19L118 18z"/>
<path style="fill:#b4b4b4; stroke:none;" d="M181 18L182 19L181 18z"/>
<path style="fill:#afafaf; stroke:none;" d="M117 19L118 20L117 19z"/>
<path style="fill:#d3d3d3; stroke:none;" d="M116 20L117 21L116 20z"/>
<path style="fill:#9c9c9c; stroke:none;" d="M183 21L184 22L183 21z"/>
<path style="fill:#9d9d9d; stroke:none;" d="M115 22L116 23L115 22z"/>
<path style="fill:#9b9b9b; stroke:none;" d="M184 23L185 24L184 23z"/>
<path style="fill:#c0c0c0; stroke:none;" d="M114 24L115 25L114 24z"/>
<path style="fill:#6d6d6d; stroke:none;" d="M114.333 25.6667L114.333 26L114.667 26.3333L114.667 26L114.333 25.6667z"/>
<path style="fill:#d1d1d1; stroke:none;" d="M185 25L186 26L185 25z"/>
<path style="fill:#747474; stroke:none;" d="M185.333 26.6667L185.333 27.3333L185.667 27.3333L185.667 27L185.333 26.6667z"/>
<path style="fill:#cfcfcf; stroke:none;" d="M113 28L113 31L113.694 30.25L113.694 29.8055L113.694 28.75L113 28z"/>
<path style="fill:#878787; stroke:none;" d="M141 29L141.778 29.7222L142.306 29.75L143.111 29.9445L144.028 29.9722L146 30L148 30L152 30L151.222 29.2778L150.694 29.25L149.889 29.0555L148.972 29.0278L147 29L145 29L141 29z"/>
<path style="fill:#686868; stroke:none;" d="M152 29L152.722 29.7222L153.25 29.75L155 30L154.278 29.2778L153.75 29.25L152 29z"/>
<path style="fill:#cbcbcb; stroke:none;" d="M186 29L186 32L186.694 31.25L186.694 30.8055L186.694 29.75L186 29z"/>
<path style="fill:#878787; stroke:none;" d="M137 30L138 31L137 30z"/>
<path style="fill:#e7e7e7; stroke:none;" d="M138.667 30.3333L138.667 30.6667L139.333 30.6667L139.333 30.3333L138.667 30.3333z"/>
<path style="fill:#ffffff; stroke:none;" d="M132 60L130.5 60.0833L128.944 60.4167L128 60.6944L126 61.3056L125 61.6111L124 61.8611L122 62.3889L120 63.0278L118 63.8056L116 64.6111L114 65.3889L113 65.8333L112 66.25L111 66.7778L110 67.2222L108 68.25L107 68.8333L106 69.3889L104 70.6111L102 71.8056L101 72.3889L100 73.0278L98 74.3889L97 75.1389L95 76.6389L94 77.3611L93 78.1389L92 78.8611L90 80.3889L88 82.0833L87 83.0278L85 84.9167L84 85.75L82 86.9444L81 87.1944L79 86.8333L78 86.3333L76 85.25L75 84.75L73 83.6111L72 83L70 81.8333L69 81.25L67 80.2222L66 79.75L64 78.6111L62 77.4167L60 76.4167L58 75.6111L56 74.8333L55 74.4722L53 74.0833L51 74L49 74.1111L47 74.7222L45.0833 76.1111L43.4167 78L42.6944 79L41.3889 81L40.8333 82L40.25 83L39.7778 84L39.2222 85L38.7778 86L38.2222 87L37.7778 88L37.2222 89L36.7778 90L36.2222 91L35.25 93L34.4722 95L34.0833 97L34.0556 98L34.0833 99L34.5 101L35.5 102.972L37.0833 104.778L38.0278 105.583L40 107L41 107.667L43 109L44 109.667L46 110.972L47 111.611L49 112.75L50 113.25L52 114.389L54 115.611L56 116.806L57 117.389L59 118.667L59.9444 119.306L60.9444 119.917L61.5 120.306L63 121L62.4167 123.056L62 125L61.6111 127L61.3889 128L61 130L60.6111 132L60.3889 133L60.0833 135L60.0278 136L59.9722 138L59.9167 139L59.6111 141L59.3889 142L59.0833 144L59.0278 145L59 147L59 148L59 150L59 152L59 153L59.0278 155L59.0833 156L59.3889 158L59.7778 160L59.9167 161L59.9722 162L60.0833 164L60.2222 165L60.6111 167L61 169L61.3889 171L61.6111 172L61.8056 173L62.1944 175L62.3889 175.944L62.75 177.5L63 179L61.5 179.528L60.9444 179.889L59.9444 180.417L59 181.028L58 181.667L56 183L54 184.333L52 185.611L51 186.194L49 187.389L47 188.611L45 189.806L44 190.389L42 191.667L41 192.333L40 193L38.0278 194.417L37.0833 195.222L35.5 197.028L34.5 199L34.0833 201L34.0278 203L34.25 205L34.4722 206L35.25 208L35.7778 209L36.2222 210L36.7778 211L37.25 212L38.3889 214L39.0278 215L40.3333 217L41.6944 219L42.3889 220L43.1389 221L43.8611 222L45.3889 223.917L47.0833 225.5L48.0278 226.056L50 226.75L52 226.889L54 226.528L56 225.75L57 225.222L59 224.222L60 223.75L62 222.611L64 221.389L65 220.833L66 220.25L67 219.778L69 218.75L70 218.167L71 217.611L73 216.389L75 215.25L76 214.75L77 214.167L79 213.167L81 212.806L82 213.056L84 214.25L85 215.083L86 216.028L88 217.972L89 218.917L91 220.611L92 221.389L93 222.194L95 223.806L96 224.583L98 226L99 226.667L101 227.972L102 228.611L103 229.167L104 229.75L105 230.222L107 231.222L108 231.778L109 232.222L110 232.778L111 233.222L112 233.778L113 234.222L114 234.75L116 235.611L117 235.972L119 236.667L120 237L123 238L126 239L128 239.667L128.944 240L129.944 240.333L130.5 240.556L132 241L132 251L132 254L132 255L132 256L132.083 258L132.389 260L132.611 261L133 263L133.222 264L133.944 265.917L135.25 267.5L137.028 268.5L139 268.944L141 269.222L142 269.389L143 269.611L145 269.917L147 270L149 270L151 270L152 270L154 269.917L155 269.778L156 269.611L158 269.222L159 269.083L161 268.917L162.972 268.5L163.917 268.056L165.5 266.75L166.5 264.972L166.944 263L167.056 262L167.389 260L167.611 259L167.917 257L168 255L168 254L168 253L168 250L168 240L169.5 239.917L171.056 239.583L172 239.306L174 238.694L175 238.389L176 238.139L178 237.611L180 236.972L182 236.194L184 235.389L186 234.611L187 234.167L188 233.75L189 233.222L190 232.778L192 231.75L193 231.167L194 230.611L196 229.389L198 228.194L199 227.611L200 226.972L201 226.333L203 225L204 224.306L205 223.583L206 222.806L208 221.194L209 220.389L211 218.778L212 217.917L214 216.083L215.889 214.444L216.694 213.667L217.222 213.25L218 212L219.5 212.5L220.056 212.833L221.056 213.25L223 214.25L225 215.389L227 216.611L229 217.75L230 218.222L231 218.778L232 219.25L234 220.389L236 221.611L238 222.75L239 223.222L240 223.778L241 224.222L243 225.139L244 225.528L246 225.917L248 226L249 226L250 225.972L251 225.889L252.972 225.278L254.778 223.889L255.583 222.972L256.306 222L256.972 221L258.194 219L259.389 217L260.611 215L261.167 214L261.75 213L262.222 212L263.222 210L263.778 209L264.222 208L264.75 207L265.528 205L265.75 204L265.917 203L265.917 201L265.5 199L265.056 198L264.5 197.028L262.917 195.222L261 193.694L259 192.389L258 191.806L256 190.611L254 189.389L253 188.806L251 187.611L249 186.389L248 185.806L247 185.194L245 184L244 183.389L243 182.806L241.028 181.528L240.083 180.75L238.583 178.972L237.889 177L237.861 176L237.972 174L238.056 173L238.389 171L238.611 170L238.944 168L239.056 167L239.389 165L239.611 164L239.917 162L239.972 161L240 160L240.028 158L240.083 157L240.389 155L240.611 154L240.917 152L240.972 150L240.917 149L240.611 147L240.389 146L240.083 144L240.028 143L240 141L240 140L240 138L239.917 136L239.611 134L239.389 133L239 131L238.611 129L238.389 128L238 126L237.583 124.056L237 122L238.5 121.222L239.056 120.694L240.056 119.917L241 119.056L243 117.472L244 116.833L246 115.611L248 114.389L249 113.806L251 112.611L253 111.389L255 110.194L256 109.611L257 108.972L259 107.667L261 106.306L261.972 105.583L262.917 104.778L264.5 102.972L265.5 101L265.917 99L265.944 98L265.917 97L265.528 95L264.75 93L264.222 92L263.222 90L262.75 89L262.167 88L261.611 87L260.389 85L259.806 84L258.611 82L257.306 80L255.778 78L254.917 77.0278L253 75.3333L252 74.7222L250 74.1111L248 74.0278L247 74.0833L245 74.4722L244 74.8611L243 75.25L241 76.2222L240 76.7778L238 77.7778L237 78.2222L236 78.7778L235 79.2222L233 80.25L232 80.8333L231 81.3889L229 82.6111L228 83.1667L226 84.25L224 85.3889L222 86.5556L221 86.9722L220 87.1944L219 87.1111L217 86.25L215 84.7778L214 83.9167L212 82.0833L210 80.3889L208 78.8611L207 78.1389L206 77.3611L205 76.6389L203 75.1389L202 74.3889L200 73.0278L199 72.3889L197 71.25L196 70.75L194 69.6111L192 68.3889L191 67.8333L190 67.2778L189 66.8333L188 66.3889L186 65.6111L184 64.8056L183 64.3889L182 64.0278L181 63.6667L179 63L177 62.3333L175 61.6667L173 61L172 60.6944L171.056 60.4167L170.056 60.2222L169.5 60.0833L168 60L168 50L168 47L168 45L168 43L167.972 42L167.917 41L167.611 39L167.361 38L166.833 36L166.056 34.0833L164.75 32.5L162.972 31.5L162 31.2222L161 31L159 30.6111L158 30.3889L156 30.0833L154 30L153 30L152 30L149 30L146 30L145 30L144 30L142 30.0833L141 30.2222L139 30.6389L138 30.8889L136.083 31.6945L134.5 33.1111L133.944 34.0278L133.5 35L133 37L132.806 38L132.611 39L132.389 40L132.083 42L132 44L132 45L132 46L132 49L132 60z"/>
<path style="fill:#c3c3c3; stroke:none;" d="M158 30L158.722 30.7222L159.25 30.75L161 31L160.278 30.2778L159.75 30.25L158 30z"/>
<path style="fill:#838383; stroke:none;" d="M161 30L162 31L161 30z"/>
<path style="fill:#7e7e7e; stroke:none;" d="M113 31L113 46L113.722 45.2222L113.75 44.6944L113.944 43.8889L113.972 42.9722L114 42L114 41L114 39L114 37L114 36L113.972 34.0278L113.944 33.1111L113.75 32.3055L113.722 31.7778L113 31z"/>
<path style="fill:#7d7d7d; stroke:none;" d="M135 31L136 32L135 31z"/>
<path style="fill:#b5b5b5; stroke:none;" d="M163 31L164 32L163 31z"/>
<path style="fill:#8c8c8c; stroke:none;" d="M134 32L135 33L134 32z"/>
<path style="fill:#8e8e8e; stroke:none;" d="M186 32L186 36L186.722 35.2222L186.722 34.7222L186.889 34L186.722 32.7778L186 32z"/>
<path style="fill:#bdbdbd; stroke:none;" d="M133 34L134 35L133 34z"/>
<path style="fill:#cfcfcf; stroke:none;" d="M166 34L167 35L166 34z"/>
<path style="fill:#9f9f9f; stroke:none;" d="M132.333 36.6667L132.333 37.3333L132.667 37.3333L132.667 37L132.333 36.6667z"/>
<path style="fill:#b2b2b2; stroke:none;" d="M167 36L167 39L167.694 38.25L167.694 37.8055L167.694 36.75L167 36z"/>
<path style="fill:#7d7d7d; stroke:none;" d="M186 36L186 46L186.722 45.2222L186.75 44.6944L186.944 43.8889L186.972 42.9722L187 41L186.972 39.0278L186.944 38.1111L186.75 37.3055L186.722 36.7778L186 36z"/>
<path style="fill:#c5c5c5; stroke:none;" d="M132.333 38.6667L132.333 39.3333L132.667 39.3333L132.667 39L132.333 38.6667z"/>
<path style="fill:#8c8c8c; stroke:none;" d="M112 46L113 47L112 46z"/>
<path style="fill:#808080; stroke:none;" d="M187 46L188 47L187 46z"/>
<path style="fill:#c3c3c3; stroke:none;" d="M109 47L110 48L109 47z"/>
<path style="fill:#7d7d7d; stroke:none;" d="M189 47L190 48L189 47z"/>
<path style="fill:#d3d3d3; stroke:none;" d="M190 47L191 48L190 47z"/>
<path style="fill:#bcbcbc; stroke:none;" d="M107 48L108 49L107 48z"/>
<path style="fill:#c3c3c3; stroke:none;" d="M192 48L193 49L192 48z"/>
<path style="fill:#a4a4a4; stroke:none;" d="M105 49L106 50L105 49z"/>
<path style="fill:#bcbcbc; stroke:none;" d="M194 49L195 50L194 49z"/>
<path style="fill:#909090; stroke:none;" d="M103 50L104 51L103 50z"/>
<path style="fill:#b7b7b7; stroke:none;" d="M196 50L197 51L196 50z"/>
<path style="fill:#cfcfcf; stroke:none;" d="M45 51L45.7778 51.7222L46.3056 51.75L47.0556 51.9444L47.9722 51.9722L50 52L49.2222 51.2778L48.6944 51.25L47.9444 51.0556L47.0278 51.0278L45 51z"/>
<path style="fill:#909090; stroke:none;" d="M101 51L102 52L101 51z"/>
<path style="fill:#b5b5b5; stroke:none;" d="M198 51L199 52L198 51z"/>
<path style="fill:#aaaaaa; stroke:none;" d="M249 51L249.778 51.7222L250.306 51.75L251.111 51.9444L251.972 51.9722L252.944 52L255 52L254.222 51.2778L253.694 51.25L252.889 51.0556L252.028 51.0278L251.056 51L249 51z"/>
<path style="fill:#d3d3d3; stroke:none;" d="M41 52L42 53L41 52z"/>
<path style="fill:#909090; stroke:none;" d="M42 52L43 53L42 52z"/>
<path style="fill:#7d7d7d; stroke:none;" d="M52 52L53 53L52 52z"/>
<path style="fill:#aeaeae; stroke:none;" d="M53 52L54 53L53 52z"/>
<path style="fill:#919191; stroke:none;" d="M99 52L100 53L99 52z"/>
<path style="fill:#b8b8b8; stroke:none;" d="M200 52L201 53L200 52z"/>
<path style="fill:#b7b7b7; stroke:none;" d="M246 52L247 53L246 52z"/>
<path style="fill:#a8a8a8; stroke:none;" d="M257 52L258 53L257 52z"/>
<path style="fill:#767676; stroke:none;" d="M40 53L41 54L40 53z"/>
<path style="fill:#7b7b7b; stroke:none;" d="M55 53L56 54L55 53z"/>
<path style="fill:#cdcdcd; stroke:none;" d="M56 53L57 54L56 53z"/>
<path style="fill:#a2a2a2; stroke:none;" d="M97 53L98 54L97 53z"/>
<path style="fill:#c3c3c3; stroke:none;" d="M202 53L203 54L202 53z"/>
<path style="fill:#d3d3d3; stroke:none;" d="M243 53L244 54L243 53z"/>
<path style="fill:#878787; stroke:none;" d="M244 53L245 54L244 53z"/>
<path style="fill:#929292; stroke:none;" d="M259 53L260 54L259 53z"/>
<path style="fill:#b3b3b3; stroke:none;" d="M38 54L39 55L38 54z"/>
<path style="fill:#bfbfbf; stroke:none;" d="M58 54L59 55L58 54z"/>
<path style="fill:#b7b7b7; stroke:none;" d="M95 54L96 55L95 54z"/>
<path style="fill:#777777; stroke:none;" d="M203 54L204 55L203 54z"/>
<path style="fill:#c5c5c5; stroke:none;" d="M241 54L242 55L241 54z"/>
<path style="fill:#c8c8c8; stroke:none;" d="M261 54L262 55L261 54z"/>
<path style="fill:#9c9c9c; stroke:none;" d="M37 55L38 56L37 55z"/>
<path style="fill:#bbbbbb; stroke:none;" d="M60 55L61 56L60 55z"/>
<path style="fill:#d4d4d4; stroke:none;" d="M93 55L94 56L93 55z"/>
<path style="fill:#919191; stroke:none;" d="M205 55L206 56L205 55z"/>
<path style="fill:#c7c7c7; stroke:none;" d="M239 55L240 56L239 55z"/>
<path style="fill:#acacac; stroke:none;" d="M262 55L263 56L262 55z"/>
<path style="fill:#a4a4a4; stroke:none;" d="M36 56L37 57L36 56z"/>
<path style="fill:#cacaca; stroke:none;" d="M62 56L63 57L62 56z"/>
<path style="fill:#989898; stroke:none;" d="M92 56L93 57L92 56z"/>
<path style="fill:#b0b0b0; stroke:none;" d="M207 56L208 57L207 56z"/>
<path style="fill:#777777; stroke:none;" d="M238 56L239 57L238 56z"/>
<path style="fill:#a7a7a7; stroke:none;" d="M263 56L264 57L263 56z"/>
<path style="fill:#bbbbbb; stroke:none;" d="M35 57L36 58L35 57z"/>
<path style="fill:#7f7f7f; stroke:none;" d="M63 57L64 58L63 57z"/>
<path style="fill:#b6b6b6; stroke:none;" d="M90 57L91 58L90 57z"/>
<path style="fill:#767676; stroke:none;" d="M208 57L209 58L208 57z"/>
<path style="fill:#828282; stroke:none;" d="M236 57L237 58L236 57z"/>
<path style="fill:#b8b8b8; stroke:none;" d="M264 57L265 58L264 57z"/>
<path style="fill:#cfcfcf; stroke:none;" d="M34 58L35 59L34 58z"/>
<path style="fill:#939393; stroke:none;" d="M65 58L66 59L65 58z"/>
<path style="fill:#7b7b7b; stroke:none;" d="M89 58L90 59L89 58z"/>
<path style="fill:#a5a5a5; stroke:none;" d="M210 58L211 59L210 58z"/>
<path style="fill:#909090; stroke:none;" d="M234 58L235 59L234 58z"/>
<path style="fill:#cccccc; stroke:none;" d="M265 58L266 59L265 58z"/>
<path style="fill:#a6a6a6; stroke:none;" d="M67 59L68 60L67 59z"/>
<path style="fill:#c0c0c0; stroke:none;" d="M87 59L88 60L87 59z"/>
<path style="fill:#a8a8a8; stroke:none;" d="M131 59L132 60L131 59z"/>
<path style="fill:#a6a6a6; stroke:none;" d="M168 59L169 60L168 59z"/>
<path style="fill:#9f9f9f; stroke:none;" d="M232 59L233 60L232 59z"/>
<path style="fill:#7b7b7b; stroke:none;" d="M33 60L34 61L33 60z"/>
<path style="fill:#b7b7b7; stroke:none;" d="M69 60L70 61L69 60z"/>
<path style="fill:#898989; stroke:none;" d="M86 60L87 61L86 60z"/>
<path style="fill:#838383; stroke:none;" d="M127 60L128 61L127 60z"/>
<path style="fill:#b9b9b9; stroke:none;" d="M128 60L129 61L128 60z"/>
<path style="fill:#adadad; stroke:none;" d="M171 60L172 61L171 60z"/>
<path style="fill:#b9b9b9; stroke:none;" d="M213 60L214 61L213 60z"/>
<path style="fill:#b8b8b8; stroke:none;" d="M230 60L231 61L230 60z"/>
<path style="fill:#767676; stroke:none;" d="M266 60L267 61L266 60z"/>
<path style="fill:#aeaeae; stroke:none;" d="M32 61L33 62L32 61z"/>
<path style="fill:#c9c9c9; stroke:none;" d="M71 61L72 62L71 61z"/>
<path style="fill:#d2d2d2; stroke:none;" d="M84 61L85 62L84 61z"/>
<path style="fill:#949494; stroke:none;" d="M124 61L125 62L124 61z"/>
<path style="fill:#cacaca; stroke:none;" d="M125 61L126 62L125 61z"/>
<path style="fill:#b4b4b4; stroke:none;" d="M174 61L175 62L174 61z"/>
<path style="fill:#7b7b7b; stroke:none;" d="M175 61L176 62L175 61z"/>
<path style="fill:#8a8a8a; stroke:none;" d="M214 61L215 62L214 61z"/>
<path style="fill:#a3a3a3; stroke:none;" d="M267 61L268 62L267 61z"/>
<path style="fill:#787878; stroke:none;" d="M72 62L73 63L72 62z"/>
<path style="fill:#9f9f9f; stroke:none;" d="M83 62L84 63L83 62M121 62L122 63L121 62z"/>
<path style="fill:#bbbbbb; stroke:none;" d="M177 62L178 63L177 62z"/>
<path style="fill:#7f7f7f; stroke:none;" d="M178 62L179 63L178 62z"/>
<path style="fill:#8b8b8b; stroke:none;" d="M227 62L228 63L227 62z"/>
<path style="fill:#888888; stroke:none;" d="M74 63L75 64L74 63z"/>
<path style="fill:#9a9a9a; stroke:none;" d="M118 63L119 64L118 63z"/>
<path style="fill:#b5b5b5; stroke:none;" d="M180 63L181 64L180 63z"/>
<path style="fill:#777777; stroke:none;" d="M181 63L182 64L181 63z"/>
<path style="fill:#c7c7c7; stroke:none;" d="M217 63L218 64L217 63z"/>
<path style="fill:#a9a9a9; stroke:none;" d="M225 63L226 64L225 63z"/>
<path style="fill:#ababab; stroke:none;" d="M30 64L31 65L30 64z"/>
<path style="fill:#898989; stroke:none;" d="M76 64L77 65L76 64z"/>
<path style="fill:#a1a1a1; stroke:none;" d="M80 64L81 65L80 64z"/>
<path style="fill:#c0c0c0; stroke:none;" d="M116 64L117 65L116 64z"/>
<path style="fill:#a1a1a1; stroke:none;" d="M183 64L184 65L183 64z"/>
<path style="fill:#9f9f9f; stroke:none;" d="M218 64L219 65L218 64z"/>
<path style="fill:#c7c7c7; stroke:none;" d="M223 64L224 65L223 64z"/>
<path style="fill:#a3a3a3; stroke:none;" d="M269 64L270 65L269 64z"/>
<path style="fill:#919191; stroke:none;" d="M113 65L114 66L113 65z"/>
<path style="fill:#c0c0c0; stroke:none;" d="M185 65L186 66L185 65z"/>
<path style="fill:#7a7a7a; stroke:none;" d="M219 65L220 66L219 65z"/>
<path style="fill:#e2e2e2; stroke:none;" d="M220.667 65.3333L221 65.6667L221.333 65.6667L221 65.3333L220.667 65.3333z"/>
<path style="fill:#7c7c7c; stroke:none;" d="M222 65L223 66L222 65z"/>
<path style="fill:#7f7f7f; stroke:none;" d="M29 66L30 67L29 66z"/>
<path style="fill:#9a9a9a; stroke:none;" d="M111 66L112 67L111 66z"/>
<path style="fill:#808080; stroke:none;" d="M188 66L189 67L188 66z"/>
<path style="fill:#c3c3c3; stroke:none;" d="M28 67L29 68L28 67z"/>
<path style="fill:#a1a1a1; stroke:none;" d="M109 67L110 68L109 67z"/>
<path style="fill:#898989; stroke:none;" d="M190 67L191 68L190 67z"/>
<path style="fill:#b9b9b9; stroke:none;" d="M271 67L272 68L271 67z"/>
<path style="fill:#8c8c8c; stroke:none;" d="M107 68L108 69L107 68z"/>
<path style="fill:#878787; stroke:none;" d="M192 68L193 69L192 68z"/>
<path style="fill:#989898; stroke:none;" d="M27 69L28 70L27 69z"/>
<path style="fill:#828282; stroke:none;" d="M105 69L106 70L105 69z"/>
<path style="fill:#d2d2d2; stroke:none;" d="M193 69L194 70L193 69z"/>
<path style="fill:#979797; stroke:none;" d="M272 69L273 70L272 69z"/>
<path style="fill:#cecece; stroke:none;" d="M104 70L105 71L104 70z"/>
<path style="fill:#c0c0c0; stroke:none;" d="M195 70L196 71L195 70z"/>
<path style="fill:#7d7d7d; stroke:none;" d="M26 71L27 72L26 71z"/>
<path style="fill:#a4a4a4; stroke:none;" d="M102 71L103 72L102 71z"/>
<path style="fill:#9f9f9f; stroke:none;" d="M197 71L198 72L197 71z"/>
<path style="fill:#c5c5c5; stroke:none;" d="M25 72L26 73L25 72z"/>
<path style="fill:#7c7c7c; stroke:none;" d="M100 72L101 73L100 72z"/>
<path style="fill:#c0c0c0; stroke:none;" d="M274 72L275 73L274 72z"/>
<path style="fill:#b3b3b3; stroke:none;" d="M49 73L49.7778 73.7222L50.25 73.75L51.0556 73.9444L53 74L52.2222 73.2778L51.75 73.25L50.9444 73.0556L49 73z"/>
<path style="fill:#b5b5b5; stroke:none;" d="M99 73L100 74L99 73z"/>
<path style="fill:#ababab; stroke:none;" d="M200 73L201 74L200 73z"/>
<path style="fill:#a6a6a6; stroke:none;" d="M247 73L247.778 73.7222L248.25 73.75L249.056 73.9444L251 74L250.222 73.2778L249.75 73.25L248.944 73.0556L247 73z"/>
<path style="fill:#a8a8a8; stroke:none;" d="M24 74L25 75L24 74z"/>
<path style="fill:#b5b5b5; stroke:none;" d="M55 74L56 75L55 74z"/>
<path style="fill:#ababab; stroke:none;" d="M244 74L245 75L244 74z"/>
<path style="fill:#a1a1a1; stroke:none;" d="M252 74L253 75L252 74z"/>
<path style="fill:#9f9f9f; stroke:none;" d="M275 74L276 75L275 74z"/>
<path style="fill:#8a8a8a; stroke:none;" d="M45 75L46 76L45 75z"/>
<path style="fill:#d3d3d3; stroke:none;" d="M57 75L58 76L57 75z"/>
<path style="fill:#7d7d7d; stroke:none;" d="M58 75L59 76L58 75z"/>
<path style="fill:#aaaaaa; stroke:none;" d="M96 75L97 76L96 75z"/>
<path style="fill:#a1a1a1; stroke:none;" d="M203 75L204 76L203 75z"/>
<path style="fill:#c5c5c5; stroke:none;" d="M242 75L243 76L242 75z"/>
<path style="fill:#cecece; stroke:none;" d="M253 75L254 76L253 75z"/>
<path style="fill:#8a8a8a; stroke:none;" d="M23 76L24 77L23 76z"/>
<path style="fill:#8b8b8b; stroke:none;" d="M44 76L45 77L44 76z"/>
<path style="fill:#868686; stroke:none;" d="M60 76L61 77L60 76z"/>
<path style="fill:#d3d3d3; stroke:none;" d="M95 76L96 77L95 76z"/>
<path style="fill:#cfcfcf; stroke:none;" d="M204 76L205 77L204 76z"/>
<path style="fill:#cacaca; stroke:none;" d="M240 76L241 77L240 76z"/>
<path style="fill:#d0d0d0; stroke:none;" d="M254 76L255 77L254 76z"/>
<path style="fill:#7d7d7d; stroke:none;" d="M276 76L277 77L276 76z"/>
<path style="fill:#838383; stroke:none;" d="M62 77L63 78L62 77z"/>
<path style="fill:#7b7b7b; stroke:none;" d="M93 77L94 78L93 77z"/>
<path style="fill:#767676; stroke:none;" d="M206 77L207 78L206 77z"/>
<path style="fill:#cccccc; stroke:none;" d="M238 77L239 78L238 77z"/>
<path style="fill:#aeaeae; stroke:none;" d="M255 77L256 78L255 77z"/>
<path style="fill:#c7c7c7; stroke:none;" d="M277 77L278 78L277 77z"/>
<path style="fill:#d3d3d3; stroke:none;" d="M63 78L64 79L63 78z"/>
<path style="fill:#a3a3a3; stroke:none;" d="M92 78L93 79L92 78z"/>
<path style="fill:#9e9e9e; stroke:none;" d="M207 78L208 79L207 78z"/>
<path style="fill:#b7b7b7; stroke:none;" d="M236 78L237 79L236 78z"/>
<path style="fill:#7f7f7f; stroke:none;" d="M256 78L257 79L256 78z"/>
<path style="fill:#c3c3c3; stroke:none;" d="M21 79L22 80L21 79z"/>
<path style="fill:#bbbbbb; stroke:none;" d="M42 79L43 80L42 79z"/>
<path style="fill:#c0c0c0; stroke:none;" d="M65 79L66 80L65 79M91 79L92 80L91 79z"/>
<path style="fill:#bdbdbd; stroke:none;" d="M208 79L209 80L208 79z"/>
<path style="fill:#a2a2a2; stroke:none;" d="M234 79L235 80L234 79z"/>
<path style="fill:#acacac; stroke:none;" d="M278 79L279 80L278 79z"/>
<path style="fill:#7b7b7b; stroke:none;" d="M41 80L42 81L41 80z"/>
<path style="fill:#adadad; stroke:none;" d="M67 80L68 81L67 80z"/>
<path style="fill:#8d8d8d; stroke:none;" d="M232 80L233 81L232 80z"/>
<path style="fill:#cacaca; stroke:none;" d="M257 80L258 81L257 80z"/>
<path style="fill:#acacac; stroke:none;" d="M20 81L21 82L20 81z"/>
<path style="fill:#959595; stroke:none;" d="M69 81L70 82L69 81z"/>
<path style="fill:#848484; stroke:none;" d="M258 81L259 82L258 81z"/>
<path style="fill:#989898; stroke:none;" d="M279 81L280 82L279 81z"/>
<path style="fill:#9c9c9c; stroke:none;" d="M40 82L41 83L40 82z"/>
<path style="fill:#7c7c7c; stroke:none;" d="M71 82L72 83L71 82z"/>
<path style="fill:#787878; stroke:none;" d="M87 82L88 83L87 82z"/>
<path style="fill:#7f7f7f; stroke:none;" d="M212 82L213 83L212 82z"/>
<path style="fill:#c3c3c3; stroke:none;" d="M229 82L230 83L229 82z"/>
<path style="fill:#959595; stroke:none;" d="M19 83L20 84L19 83z"/>
<path style="fill:#cfcfcf; stroke:none;" d="M72 83L73 84L72 83z"/>
<path style="fill:#878787; stroke:none;" d="M86 83L87 84L86 83z"/>
<path style="fill:#9f9f9f; stroke:none;" d="M213 83L214 84L213 83z"/>
<path style="fill:#a4a4a4; stroke:none;" d="M227 83L228 84L227 83z"/>
<path style="fill:#adadad; stroke:none;" d="M259 83L260 84L259 83z"/>
<path style="fill:#858585; stroke:none;" d="M280 83L281 84L280 83z"/>
<path style="fill:#adadad; stroke:none;" d="M39 84L40 85L39 84z"/>
<path style="fill:#afafaf; stroke:none;" d="M74 84L75 85L74 84z"/>
<path style="fill:#a2a2a2; stroke:none;" d="M85 84L86 85L85 84z"/>
<path style="fill:#b7b7b7; stroke:none;" d="M214 84L215 85L214 84z"/>
<path style="fill:#939393; stroke:none;" d="M225 84L226 85L225 84z"/>
<path style="fill:#7f7f7f; stroke:none;" d="M18 85L19 86L18 85z"/>
<path style="fill:#969696; stroke:none;" d="M76 85L77 86L76 85z"/>
<path style="fill:#b9b9b9; stroke:none;" d="M84 85L85 86L84 85z"/>
<path style="fill:#d0d0d0; stroke:none;" d="M215 85L216 86L215 85z"/>
<path style="fill:#7b7b7b; stroke:none;" d="M223 85L224 86L223 85z"/>
<path style="fill:#d1d1d1; stroke:none;" d="M260 85L261 86L260 85z"/>
<path style="fill:#cfcfcf; stroke:none;" d="M17 86L18 87L17 86z"/>
<path style="fill:#bdbdbd; stroke:none;" d="M38 86L39 87L38 86z"/>
<path style="fill:#7c7c7c; stroke:none;" d="M78 86L79 87L78 86z"/>
<path style="fill:#cdcdcd; stroke:none;" d="M83 86L84 87L83 86z"/>
<path style="fill:#767676; stroke:none;" d="M221 86L222 87L221 86z"/>
<path style="fill:#d1d1d1; stroke:none;" d="M222 86L223 87L222 86z"/>
<path style="fill:#878787; stroke:none;" d="M261 86L262 87L261 86z"/>
<path style="fill:#c3c3c3; stroke:none;" d="M282 86L283 87L282 86z"/>
<path style="fill:#cacaca; stroke:none;" d="M79 87L80 88L79 87z"/>
<path style="fill:#737373; stroke:none;" d="M218.667 87.3333L219 87.6667L219.333 87.6667L219 87.3333L218.667 87.3333z"/>
<path style="fill:#cecece; stroke:none;" d="M220 87L221 88L220 87z"/>
<path style="fill:#bdbdbd; stroke:none;" d="M16 88L17 89L16 88z"/>
<path style="fill:#cbcbcb; stroke:none;" d="M37 88L38 89L37 88z"/>
<path style="fill:#a3a3a3; stroke:none;" d="M262 88L263 89L262 88z"/>
<path style="fill:#afafaf; stroke:none;" d="M283 88L284 89L283 88z"/>
<path style="fill:#b4b4b4; stroke:none;" d="M15 90L16 91L15 90z"/>
<path style="fill:#cccccc; stroke:none;" d="M36 90L37 91L36 90z"/>
<path style="fill:#b9b9b9; stroke:none;" d="M263 90L264 91L263 90z"/>
<path style="fill:#aaaaaa; stroke:none;" d="M284 90L285 91L284 90z"/>
<path style="fill:#b6b6b6; stroke:none;" d="M14 92L15 93L14 92z"/>
<path style="fill:#c8c8c8; stroke:none;" d="M35 92L36 93L35 92z"/>
<path style="fill:#b6b6b6; stroke:none;" d="M264 92L265 93L264 92z"/>
<path style="fill:#a9a9a9; stroke:none;" d="M285 92L286 93L285 92z"/>
<path style="fill:#c6c6c6; stroke:none;" d="M13 94L14 95L13 94z"/>
<path style="fill:#9f9f9f; stroke:none;" d="M34 94L35 95L34 94z"/>
<path style="fill:#ababab; stroke:none;" d="M265 94L266 95L265 94z"/>
<path style="fill:#bebebe; stroke:none;" d="M286 94L287 95L286 94z"/>
<path style="fill:#828282; stroke:none;" d="M13 95L14 96L13 95z"/>
<path style="fill:#797979; stroke:none;" d="M286 95L287 96L286 95z"/>
<path style="fill:#9f9f9f; stroke:none;" d="M12.3333 97.6667L12.3333 98.3333L12.6667 98.3333L12.6667 98L12.3333 97.6667z"/>
<path style="fill:#8f8f8f; stroke:none;" d="M33 97L33 100L33.6944 99.25L33.6944 98.8056L33.6944 97.75L33 97z"/>
<path style="fill:#949494; stroke:none;" d="M266 97L266 100L266.694 99.25L266.694 98.1944L266.694 97.75L266 97z"/>
<path style="fill:#9d9d9d; stroke:none;" d="M287.333 97.6667L287.333 98.3333L287.667 98.3333L287.667 97.6667L287.333 97.6667z"/>
<path style="fill:#7f7f7f; stroke:none;" d="M12 99L12 103L12.7222 102.222L12.7222 101.722L12.8889 101L12.7222 99.7778L12 99M287 99L287 103L287.722 102.222L287.722 101.722L287.889 101L287.722 99.7778L287 99z"/>
<path style="fill:#c6c6c6; stroke:none;" d="M34 101L35 102L34 101z"/>
<path style="fill:#c4c4c4; stroke:none;" d="M265 101L266 102L265 101z"/>
<path style="fill:#b5b5b5; stroke:none;" d="M12 103L12 106L12.6944 105.25L12.6944 104.194L12.6944 103.75L12 103z"/>
<path style="fill:#838383; stroke:none;" d="M35 103L36 104L35 103z"/>
<path style="fill:#7a7a7a; stroke:none;" d="M264 103L265 104L264 103z"/>
<path style="fill:#b8b8b8; stroke:none;" d="M287 103L287 106L287.694 105.25L287.694 104.194L287.694 103.75L287 103z"/>
<path style="fill:#878787; stroke:none;" d="M36 104L37 105L36 104z"/>
<path style="fill:#cacaca; stroke:none;" d="M142.667 104.333L143 104.667L143.333 104.667L143 104.333L142.667 104.333z"/>
<path style="fill:#9a9a9a; stroke:none;" d="M144 104L144.778 104.722L145.306 104.75L146.111 104.944L147.028 104.972L149 105L150.944 105L154 105L153.222 104.278L152.694 104.25L151.889 104.056L150.972 104.028L149 104L147.056 104L144 104z"/>
<path style="fill:#7b7b7b; stroke:none;" d="M263 104L264 105L263 104z"/>
<path style="fill:#c4c4c4; stroke:none;" d="M138 105L139 106L138 105z"/>
<path style="fill:#979797; stroke:none;" d="M139 105L140 106L139 105z"/>
<path style="fill:#4b4b4b; stroke:none;" d="M140 105.417L139 105.694L137 106.333L135 107.028L134 107.389L132 108.25L131 108.778L130 109.222L129 109.778L128 110.25L126 111.389L125 112.028L123 113.417L121 115.083L119 117L118 118L117 119L115.083 121L113.417 123L112.028 125L111.389 126L110.25 128L109.778 129L109.222 130L108.778 131L108.25 132L107.389 134L107.028 135L106.389 137L106.139 138L105.639 140L105.389 141L105.083 143L105 145L105 146L105 149L105 151L105 152L105.028 154L105.083 155L105.389 157L105.611 158L105.806 159L106.194 161L106.417 162L107 164L107.333 165L108.028 167L108.389 168L109.25 170L109.778 171L110.833 173L111.389 174L112.028 175L113.417 177L115.083 179L117 181L118 182L120 183.972L121 184.917L123 186.583L125 187.972L127 189.167L128 189.75L129 190.222L130 190.778L131 191.222L132 191.75L133 192.167L134 192.611L136 193.306L137 193.583L139 194L141 194.389L142 194.611L144 194.917L146 195L147 195L148 195L150 195L152 195L153 195L155 194.972L156 194.917L158 194.611L159 194.389L161 194L163 193.583L164 193.306L166 192.611L168 191.75L169 191.222L171 190.222L172 189.75L174 188.611L176 187.306L177 186.583L178 185.778L180 183.972L182 182L183 181L184.917 179L186.583 177L187.972 175L188.611 174L189.75 172L190.222 171L190.75 170L191.167 169L191.611 168L192.333 166L192.667 165L193 164L193.583 162L193.806 161L194.194 159L194.389 158L194.611 157L194.917 155L194.972 154L195 152L195 151L195 149L195 147L194.972 145L194.917 144L194.611 142L194.389 141L194.194 140L193.806 138L193.583 137L192.972 135L192.167 133L191.75 132L191.222 131L190.778 130L190.222 129L189.75 128L189.167 127L188.611 126L187.306 124L185.806 122L184.194 120.083L183.389 119.222L182.611 118.389L181.778 117.611L179.972 115.944L179 115.056L177 113.417L176 112.694L174 111.389L173 110.833L172 110.25L171 109.778L170 109.222L169 108.778L168 108.25L166 107.444L165 107.167L164 106.861L163 106.639L161 106.139L160 105.861L158 105.389L156 105.083L155 105.028L154 105L152 105L151 105L149 105L147 105L146 105L144 105L142 105.083L140 105.417z"/>
<path style="fill:#aeaeae; stroke:none;" d="M158 105L158.722 105.722L159.25 105.75L161 106L160.278 105.278L159.75 105.25L158 105z"/>
<path style="fill:#c8c8c8; stroke:none;" d="M39 106L40 107L39 106M135 106L136 107L135 106z"/>
<path style="fill:#858585; stroke:none;" d="M136 106L137 107L136 106z"/>
<path style="fill:#7d7d7d; stroke:none;" d="M162 106L163 107L162 106z"/>
<path style="fill:#afafaf; stroke:none;" d="M163 106L164 107L163 106z"/>
<path style="fill:#c3c3c3; stroke:none;" d="M260 106L261 107L260 106z"/>
<path style="fill:#787878; stroke:none;" d="M13 107L14 108L13 107z"/>
<path style="fill:#8c8c8c; stroke:none;" d="M40 107L41 108L40 107z"/>
<path style="fill:#9c9c9c; stroke:none;" d="M133 107L134 108L133 107z"/>
<path style="fill:#b4b4b4; stroke:none;" d="M166 107L167 108L166 107z"/>
<path style="fill:#828282; stroke:none;" d="M259 107L260 108L259 107z"/>
<path style="fill:#818181; stroke:none;" d="M286 107L287 108L286 107z"/>
<path style="fill:#b3b3b3; stroke:none;" d="M13 108L14 109L13 108z"/>
<path style="fill:#d4d4d4; stroke:none;" d="M42 108L43 109L42 108z"/>
<path style="fill:#8f8f8f; stroke:none;" d="M131 108L132 109L131 108z"/>
<path style="fill:#909090; stroke:none;" d="M168 108L169 109L168 108z"/>
<path style="fill:#bdbdbd; stroke:none;" d="M257 108L258 109L257 108z"/>
<path style="fill:#bcbcbc; stroke:none;" d="M286 108L287 109L286 108z"/>
<path style="fill:#8f8f8f; stroke:none;" d="M43 109L44 110L43 109z"/>
<path style="fill:#888888; stroke:none;" d="M129 109L130 110L129 109z"/>
<path style="fill:#909090; stroke:none;" d="M170 109L171 110L170 109z"/>
<path style="fill:#7d7d7d; stroke:none;" d="M256 109L257 110L256 109z"/>
<path style="fill:#b5b5b5; stroke:none;" d="M14 110L15 111L14 110z"/>
<path style="fill:#b9b9b9; stroke:none;" d="M45 110L46 111L45 110z"/>
<path style="fill:#a4a4a4; stroke:none;" d="M127 110L128 111L127 110z"/>
<path style="fill:#989898; stroke:none;" d="M172 110L173 111L172 110z"/>
<path style="fill:#a3a3a3; stroke:none;" d="M254 110L255 111L254 110z"/>
<path style="fill:#c3c3c3; stroke:none;" d="M285 110L286 111L285 110z"/>
<path style="fill:#808080; stroke:none;" d="M15 111L16 112L15 111z"/>
<path style="fill:#c5c5c5; stroke:none;" d="M125 111L126 112L125 111z"/>
<path style="fill:#c6c6c6; stroke:none;" d="M174 111L175 112L174 111z"/>
<path style="fill:#c8c8c8; stroke:none;" d="M252 111L253 112L252 111z"/>
<path style="fill:#898989; stroke:none;" d="M284 111L285 112L284 111z"/>
<path style="fill:#969696; stroke:none;" d="M48 112L49 113L48 112z"/>
<path style="fill:#989898; stroke:none;" d="M124 112L125 113L124 112z"/>
<path style="fill:#878787; stroke:none;" d="M175 112L176 113L175 112z"/>
<path style="fill:#808080; stroke:none;" d="M251 112L252 113L251 112z"/>
<path style="fill:#b5b5b5; stroke:none;" d="M50 113L51 114L50 113z"/>
<path style="fill:#d3d3d3; stroke:none;" d="M177 113L178 114L177 113z"/>
<path style="fill:#a3a3a3; stroke:none;" d="M249 113L250 114L249 113z"/>
<path style="fill:#d3d3d3; stroke:none;" d="M52 114L53 115L52 114z"/>
<path style="fill:#b8b8b8; stroke:none;" d="M121 114L122 115L121 114z"/>
<path style="fill:#ababab; stroke:none;" d="M178 114L179 115L178 114z"/>
<path style="fill:#c8c8c8; stroke:none;" d="M247 114L248 115L247 114z"/>
<path style="fill:#7d7d7d; stroke:none;" d="M19 115L20 116L19 115z"/>
<path style="fill:#8a8a8a; stroke:none;" d="M53 115L54 116L53 115z"/>
<path style="fill:#9a9a9a; stroke:none;" d="M120 115L121 116L120 115z"/>
<path style="fill:#939393; stroke:none;" d="M179 115L180 116L179 115z"/>
<path style="fill:#7c7c7c; stroke:none;" d="M246 115L247 116L246 115z"/>
<path style="fill:#b0b0b0; stroke:none;" d="M20 116L21 117L20 116z"/>
<path style="fill:#a4a4a4; stroke:none;" d="M55 116L56 117L55 116z"/>
<path style="fill:#808080; stroke:none;" d="M119 116L120 117L119 116z"/>
<path style="fill:#7d7d7d; stroke:none;" d="M180 116L181 117L180 116z"/>
<path style="fill:#a4a4a4; stroke:none;" d="M244 116L245 117L244 116z"/>
<path style="fill:#989898; stroke:none;" d="M279 116L280 117L279 116z"/>
<path style="fill:#c8c8c8; stroke:none;" d="M57 117L58 118L57 117z"/>
<path style="fill:#797979; stroke:none;" d="M118 117L119 118L118 117z"/>
<path style="fill:#767676; stroke:none;" d="M181 117L182 118L181 117z"/>
<path style="fill:#c8c8c8; stroke:none;" d="M242 117L243 118L242 117z"/>
<path style="fill:#cacaca; stroke:none;" d="M278 117L279 118L278 117z"/>
<path style="fill:#989898; stroke:none;" d="M23 118L24 119L23 118z"/>
<path style="fill:#7d7d7d; stroke:none;" d="M58 118L59 119L58 118z"/>
<path style="fill:#7b7b7b; stroke:none;" d="M117 118L118 119L117 118z"/>
<path style="fill:#8a8a8a; stroke:none;" d="M241 118L242 119L241 118z"/>
<path style="fill:#848484; stroke:none;" d="M276 118L277 119L276 118z"/>
<path style="fill:#9d9d9d; stroke:none;" d="M60 119L61 120L60 119z"/>
<path style="fill:#7c7c7c; stroke:none;" d="M116 119L117 120L116 119z"/>
<path style="fill:#7d7d7d; stroke:none;" d="M183 119L184 120L183 119z"/>
<path style="fill:#c5c5c5; stroke:none;" d="M275 119L276 120L275 119z"/>
<path style="fill:#a8a8a8; stroke:none;" d="M26 120L27 121L26 120z"/>
<path style="fill:#909090; stroke:none;" d="M115 120L116 121L115 120z"/>
<path style="fill:#8b8b8b; stroke:none;" d="M184 120L185 121L184 120z"/>
<path style="fill:#929292; stroke:none;" d="M273 120L274 121L273 120z"/>
<path style="fill:#878787; stroke:none;" d="M28 121L29 122L28 121z"/>
<path style="fill:#d5d5d5; stroke:none;" d="M62.3333 121.667L62.3333 122L62.6667 122.333L62.6667 121.667L62.3333 121.667z"/>
<path style="fill:#afafaf; stroke:none;" d="M114 121L115 122L114 121z"/>
<path style="fill:#acacac; stroke:none;" d="M185 121L186 122L185 121z"/>
<path style="fill:#d1d1d1; stroke:none;" d="M29 122L30 123L29 122z"/>
<path style="fill:#cccccc; stroke:none;" d="M113 122L114 123L113 122z"/>
<path style="fill:#7b7b7b; stroke:none;" d="M147 122L147.778 122.722L148.306 122.75L149.111 122.944L149.972 122.972L150.944 123L153 123L152.222 122.278L151.694 122.25L150.889 122.056L150.028 122.028L149.056 122L147 122z"/>
<path style="fill:#d0d0d0; stroke:none;" d="M186 122L187 123L186 122z"/>
<path style="fill:#d9d9d9; stroke:none;" d="M237.333 122.667L237.333 123L237.667 123.333L237.667 123L237.333 122.667z"/>
<path style="fill:#bbbbbb; stroke:none;" d="M270 122L271 123L270 122z"/>
<path style="fill:#b1b1b1; stroke:none;" d="M31 123L32 124L31 123z"/>
<path style="fill:#8a8a8a; stroke:none;" d="M142 123L143 124L142 123z"/>
<path style="fill:#e4e4e4; stroke:none;" d="M143.667 123.333L144 123.667L144.333 123.667L144 123.333L143.667 123.333z"/>
<path style="fill:#ffffff; stroke:none;" d="M145 123.389L143 123.806L141 124.222L140 124.472L138 125.278L137 125.833L135 127.028L133 128.417L131.028 130.083L130.083 131.028L128.417 133L127.028 135L126.417 136L125.417 138L125.028 139L124.417 141L124.222 142L124.056 143L123.778 145L123.389 147L123.083 149L123.028 150L123.083 152L123.389 154L123.806 156L124.194 158L124.417 159L125.028 161L125.417 162L126.417 164L127.694 166L129.222 168L130.083 168.972L132 170.778L133 171.583L134 172.306L136 173.583L137 174.111L138 174.583L140 175.333L141 175.667L143 176.306L144 176.583L146 176.917L147 176.972L148 177L150 177L152 177L154 176.917L155 176.778L156 176.583L158 176L159 175.667L160 175.333L162 174.583L164 173.583L166 172.306L167 171.583L168.972 169.917L170.778 168L171.583 167L172.306 166L173.583 164L174.583 162L175.306 160L175.583 159L175.778 158L175.944 157L176.222 155L176.611 153L176.917 151L176.972 150L176.917 148L176.611 146L176.194 144L175.806 142L175.583 141L174.972 139L174.583 138L173.583 136L172.306 134L171.583 133L169.917 131.028L168 129.222L167 128.417L166 127.694L164 126.417L162 125.417L160 124.667L159 124.333L158 124L156 123.417L155 123.222L154 123.083L152 123L151 123L149 123L147 123.083L145 123.389z"/>
<path style="fill:#ababab; stroke:none;" d="M156 123L157 124L156 123z"/>
<path style="fill:#9d9d9d; stroke:none;" d="M268 123L269 124L268 123z"/>
<path style="fill:#989898; stroke:none;" d="M33 124L34 125L33 124z"/>
<path style="fill:#838383; stroke:none;" d="M112 124L113 125L112 124z"/>
<path style="fill:#898989; stroke:none;" d="M139 124L140 125L139 124z"/>
<path style="fill:#c7c7c7; stroke:none;" d="M159 124L160 125L159 124z"/>
<path style="fill:#7e7e7e; stroke:none;" d="M160 124L161 125L160 124z"/>
<path style="fill:#848484; stroke:none;" d="M187 124L188 125L187 124z"/>
<path style="fill:#7b7b7b; stroke:none;" d="M266 124L267 125L266 124z"/>
<path style="fill:#bbbbbb; stroke:none;" d="M111 125L112 126L111 125z"/>
<path style="fill:#9e9e9e; stroke:none;" d="M137 125L138 126L137 125z"/>
<path style="fill:#9c9c9c; stroke:none;" d="M162 125L163 126L162 125z"/>
<path style="fill:#bfbfbf; stroke:none;" d="M188 125L189 126L188 125z"/>
<path style="fill:#cdcdcd; stroke:none;" d="M265 125L266 126L265 125z"/>
<path style="fill:#b4b4b4; stroke:none;" d="M36 126L37 127L36 126z"/>
<path style="fill:#b2b2b2; stroke:none;" d="M61.3333 126.667L61.3333 127L61.6667 127.333L61.6667 127L61.3333 126.667z"/>
<path style="fill:#7d7d7d; stroke:none;" d="M135 126L136 127L135 126z"/>
<path style="fill:#828282; stroke:none;" d="M164 126L165 127L164 126z"/>
<path style="fill:#adadad; stroke:none;" d="M238 126L238 129L238.694 128.25L238.694 127.194L238.694 126.75L238 126z"/>
<path style="fill:#b1b1b1; stroke:none;" d="M263 126L264 127L263 126z"/>
<path style="fill:#848484; stroke:none;" d="M38 127L39 128L38 127z"/>
<path style="fill:#959595; stroke:none;" d="M110 127L111 128L110 127z"/>
<path style="fill:#c2c2c2; stroke:none;" d="M134 127L135 128L134 127z"/>
<path style="fill:#cacaca; stroke:none;" d="M165 127L166 128L165 127z"/>
<path style="fill:#9d9d9d; stroke:none;" d="M189 127L190 128L189 127z"/>
<path style="fill:#808080; stroke:none;" d="M261 127L262 128L261 127z"/>
<path style="fill:#b3b3b3; stroke:none;" d="M39 128L40 129L39 128z"/>
<path style="fill:#bcbcbc; stroke:none;" d="M260 128L261 129L260 128z"/>
<path style="fill:#cecece; stroke:none;" d="M40 129L41 130L40 129z"/>
<path style="fill:#808080; stroke:none;" d="M109 129L110 130L109 129z"/>
<path style="fill:#868686; stroke:none;" d="M131 129L132 130L131 129z"/>
<path style="fill:#878787; stroke:none;" d="M168 129L169 130L168 129z"/>
<path style="fill:#8f8f8f; stroke:none;" d="M190 129L191 130L190 129z"/>
<path style="fill:#adadad; stroke:none;" d="M41 130L42 131L41 130z"/>
<path style="fill:#959595; stroke:none;" d="M60 130L60 133L60.6944 132.25L60.6944 131.194L60.6944 130.75L60 130z"/>
<path style="fill:#858585; stroke:none;" d="M130 130L131 131L130 130z"/>
<path style="fill:#8b8b8b; stroke:none;" d="M169 130L170 131L169 130z"/>
<path style="fill:#bababa; stroke:none;" d="M258 130L259 131L258 130z"/>
<path style="fill:#d6d6d6; stroke:none;" d="M41.3333 131.667L41.3333 132L41.6667 132.333L41.6667 132L41.3333 131.667z"/>
<path style="fill:#8e8e8e; stroke:none;" d="M108 131L109 132L108 131z"/>
<path style="fill:#838383; stroke:none;" d="M129 131L130 132L129 131z"/>
<path style="fill:#868686; stroke:none;" d="M170 131L171 132L170 131z"/>
<path style="fill:#979797; stroke:none;" d="M191 131L192 132L191 131M239 131L239 134L239.694 133.25L239.694 132.194L239.694 131.75L239 131z"/>
<path style="fill:#b6b6b6; stroke:none;" d="M258.333 132.667L258.333 133.333L258.667 133.333L258.667 132.667L258.333 132.667z"/>
<path style="fill:#9c9c9c; stroke:none;" d="M41.3333 133.667L41.3333 134L41.6667 134.333L41.6667 133.667L41.3333 133.667z"/>
<path style="fill:#a4a4a4; stroke:none;" d="M107 133L108 134L107 133z"/>
<path style="fill:#b9b9b9; stroke:none;" d="M192 133L193 134L192 133z"/>
<path style="fill:#bebebe; stroke:none;" d="M127 134L128 135L127 134z"/>
<path style="fill:#cbcbcb; stroke:none;" d="M172 134L173 135L172 134z"/>
<path style="fill:#747474; stroke:none;" d="M258 134L258 138L258.722 137.222L258.722 136.722L258.889 136L258.722 134.778L258 134z"/>
<path style="fill:#7e7e7e; stroke:none;" d="M41 135L41 138L41.6944 137.25L41.6944 136.194L41.6944 135.75L41 135z"/>
<path style="fill:#7d7d7d; stroke:none;" d="M59 135L59 138L59.6944 137.25L59.6944 136.194L59.6944 135.75L59 135z"/>
<path style="fill:#787878; stroke:none;" d="M126 135L127 136L126 135z"/>
<path style="fill:#898989; stroke:none;" d="M173 135L174 136L173 135z"/>
<path style="fill:#9f9f9f; stroke:none;" d="M106 136L107 137L106 136z"/>
<path style="fill:#b2b2b2; stroke:none;" d="M193 136L194 137L193 136z"/>
<path style="fill:#898989; stroke:none;" d="M125 137L126 138L125 137z"/>
<path style="fill:#9c9c9c; stroke:none;" d="M174 137L175 138L174 137z"/>
<path style="fill:#7b7b7b; stroke:none;" d="M240.333 137.667L240.333 138L240.667 138.333L240.667 138L240.333 137.667z"/>
<path style="fill:#c2c2c2; stroke:none;" d="M59.3333 138.667L59.3333 139L59.6667 139.333L59.6667 138.667L59.3333 138.667z"/>
<path style="fill:#9a9a9a; stroke:none;" d="M105.333 139.667L105.333 140L105.667 140.333L105.667 139.667L105.333 139.667z"/>
<path style="fill:#7d7d7d; stroke:none;" d="M175 139L176 140L175 139z"/>
<path style="fill:#a3a3a3; stroke:none;" d="M240 139L240 142L240.694 141.25L240.694 140.194L240.694 139.75L240 139z"/>
<path style="fill:#e1e1e1; stroke:none;" d="M59.3333 140.667L59.3333 141L59.6667 141.333L59.6667 141L59.3333 140.667z"/>
<path style="fill:#acacac; stroke:none;" d="M124 140L125 141L124 140z"/>
<path style="fill:#c4c4c4; stroke:none;" d="M175 140L176 141L175 140z"/>
<path style="fill:#898989; stroke:none;" d="M194.333 140.667L194.333 141L194.667 141.333L194.667 141L194.333 140.667z"/>
<path style="fill:#e7e7e7; stroke:none;" d="M240 142L240 147L240.722 146.222L240.75 145.694L240.917 144.917L240.75 143.306L240.722 142.778L240 142z"/>
<path style="fill:#898989; stroke:none;" d="M123 143L124 144L123 143z"/>
<path style="fill:#c4c4c4; stroke:none;" d="M176 143L176 146L176.694 145.25L176.694 144.194L176.694 143.75L176 143z"/>
<path style="fill:#676767; stroke:none;" d="M58 144L58 156L58.7222 155.222L58.75 154.694L58.9444 153.889L58.9722 152.972L59 152L59 150L59 148L58.9722 147.028L58.9444 146.111L58.75 145.306L58.7222 144.778L58 144z"/>
<path style="fill:#b4b4b4; stroke:none;" d="M104 144L104 154L104.722 153.222L104.75 152.694L104.944 151.889L104.972 150.972L105 149L104.972 147.028L104.944 146.111L104.75 145.306L104.722 144.778L104 144z"/>
<path style="fill:#cdcdcd; stroke:none;" d="M123 144L123 147L123.694 146.25L123.694 145.194L123.694 144.75L123 144z"/>
<path style="fill:#d9d9d9; stroke:none;" d="M195.333 144.667L195.333 145L195.667 145.333L195.667 145L195.333 144.667z"/>
<path style="fill:#b2b2b2; stroke:none;" d="M195 146L195 154L195.722 153.222L195.75 152.694L195.944 151.889L195.972 150.972L196 150L195.944 148.111L195.75 147.306L195.722 146.778L195 146z"/>
<path style="fill:#cbcbcb; stroke:none;" d="M176 153L176 156L176.694 155.25L176.694 154.194L176.694 153.75L176 153z"/>
<path style="fill:#c5c5c5; stroke:none;" d="M123 154L123 157L123.694 156.25L123.694 155.194L123.694 154.75L123 154z"/>
<path style="fill:#d8d8d8; stroke:none;" d="M240 154L240 157L240.694 156.25L240.694 155.194L240.694 154.75L240 154z"/>
<path style="fill:#888888; stroke:none;" d="M176 156L177 157L176 156z"/>
<path style="fill:#9a9a9a; stroke:none;" d="M105.333 157.667L105.333 158L105.667 158.333L105.667 157.667L105.333 157.667z"/>
<path style="fill:#939393; stroke:none;" d="M194 157L194 160L194.694 159.25L194.694 158.194L194.694 157.75L194 157z"/>
<path style="fill:#ababab; stroke:none;" d="M240 157L240 160L240.694 159.25L240.694 158.194L240.694 157.75L240 157z"/>
<path style="fill:#5e5e5e; stroke:none;" d="M41 158L41 162L41.7222 161.222L41.7222 160.722L41.8889 160L41.7222 158.778L41 158z"/>
<path style="fill:#d8d8d8; stroke:none;" d="M59 158L59 161L59.6944 160.25L59.6944 159.194L59.6944 158.75L59 158z"/>
<path style="fill:#c5c5c5; stroke:none;" d="M124 159L125 160L124 159z"/>
<path style="fill:#aaaaaa; stroke:none;" d="M175 159L176 160L175 159z"/>
<path style="fill:#7f7f7f; stroke:none;" d="M124 160L125 161L124 160z"/>
<path style="fill:#6e6e6e; stroke:none;" d="M240.333 160.667L240.333 161L240.667 161.333L240.667 161L240.333 160.667z"/>
<path style="fill:#979797; stroke:none;" d="M59 161L59 164L59.6944 163.25L59.6944 162.194L59.6944 161.75L59 161z"/>
<path style="fill:#8b8b8b; stroke:none;" d="M258 161L258 166L258.722 165.222L258.75 164.694L258.917 163.083L258.75 162.306L258.722 161.778L258 161z"/>
<path style="fill:#7d7d7d; stroke:none;" d="M41 162L41 165L41.6944 164.25L41.6944 163.194L41.6944 162.75L41 162z"/>
<path style="fill:#989898; stroke:none;" d="M106 162L107 163L106 162z"/>
<path style="fill:#9d9d9d; stroke:none;" d="M125 162L126 163L125 162z"/>
<path style="fill:#868686; stroke:none;" d="M174 162L175 163L174 162z"/>
<path style="fill:#878787; stroke:none;" d="M193 162L194 163L193 162z"/>
<path style="fill:#cccccc; stroke:none;" d="M106 163L107 164L106 163z"/>
<path style="fill:#c0c0c0; stroke:none;" d="M193 163L194 164L193 163z"/>
<path style="fill:#898989; stroke:none;" d="M126 164L127 165L126 164z"/>
<path style="fill:#7a7a7a; stroke:none;" d="M173 164L174 165L173 164z"/>
<path style="fill:#afafaf; stroke:none;" d="M239 164L239 167L239.694 166.25L239.694 165.806L239.694 164.75L239 164z"/>
<path style="fill:#b4b4b4; stroke:none;" d="M41.3333 165.667L41.3333 166L41.6667 166.333L41.6667 166L41.3333 165.667z"/>
<path style="fill:#909090; stroke:none;" d="M107 165L108 166L107 165z"/>
<path style="fill:#cacaca; stroke:none;" d="M127 165L128 166L127 165z"/>
<path style="fill:#bdbdbd; stroke:none;" d="M172 165L173 166L172 165z"/>
<path style="fill:#848484; stroke:none;" d="M192 165L193 166L192 165z"/>
<path style="fill:#b0b0b0; stroke:none;" d="M60 166L60 169L60.6944 168.25L60.6944 167.194L60.6944 166.75L60 166z"/>
<path style="fill:#d1d1d1; stroke:none;" d="M107 166L108 167L107 166z"/>
<path style="fill:#cacaca; stroke:none;" d="M192 166L193 167L192 166z"/>
<path style="fill:#d6d6d6; stroke:none;" d="M258 166L258 170L258.722 169.222L258.722 168.722L258.889 168L258.722 166.778L258 166z"/>
<path style="fill:#b0b0b0; stroke:none;" d="M108 168L109 169L108 168z"/>
<path style="fill:#868686; stroke:none;" d="M129 168L130 169L129 168z"/>
<path style="fill:#808080; stroke:none;" d="M170 168L171 169L170 168z"/>
<path style="fill:#aaaaaa; stroke:none;" d="M191 168L192 169L191 168z"/>
<path style="fill:#b7b7b7; stroke:none;" d="M41 169L42 170L41 169z"/>
<path style="fill:#868686; stroke:none;" d="M130 169L131 170L130 169z"/>
<path style="fill:#898989; stroke:none;" d="M169 169L170 170L169 169z"/>
<path style="fill:#a3a3a3; stroke:none;" d="M109 170L110 171L109 170z"/>
<path style="fill:#888888; stroke:none;" d="M131 170L132 171L131 170z"/>
<path style="fill:#848484; stroke:none;" d="M168 170L169 171L168 170z"/>
<path style="fill:#a3a3a3; stroke:none;" d="M190 170L191 171L190 170z"/>
<path style="fill:#b7b7b7; stroke:none;" d="M238.333 170.667L238.333 171L238.667 171.333L238.667 171L238.333 170.667z"/>
<path style="fill:#cdcdcd; stroke:none;" d="M259 170L260 171L259 170z"/>
<path style="fill:#b7b7b7; stroke:none;" d="M39 171L40 172L39 171z"/>
<path style="fill:#a1a1a1; stroke:none;" d="M61.3333 171.667L61.3333 172L61.6667 172.333L61.6667 171.667L61.3333 171.667z"/>
<path style="fill:#b2b2b2; stroke:none;" d="M260 171L261 172L260 171z"/>
<path style="fill:#848484; stroke:none;" d="M38 172L39 173L38 172z"/>
<path style="fill:#adadad; stroke:none;" d="M110 172L111 173L110 172z"/>
<path style="fill:#cacaca; stroke:none;" d="M134 172L135 173L134 172z"/>
<path style="fill:#c0c0c0; stroke:none;" d="M165 172L166 173L165 172z"/>
<path style="fill:#b2b2b2; stroke:none;" d="M189 172L190 173L189 172z"/>
<path style="fill:#7e7e7e; stroke:none;" d="M238.333 172.667L238.333 173L238.667 173.333L238.667 172.667L238.333 172.667z"/>
<path style="fill:#7d7d7d; stroke:none;" d="M261 172L262 173L261 172z"/>
<path style="fill:#afafaf; stroke:none;" d="M36 173L37 174L36 173z"/>
<path style="fill:#828282; stroke:none;" d="M135 173L136 174L135 173z"/>
<path style="fill:#7b7b7b; stroke:none;" d="M164 173L165 174L164 173z"/>
<path style="fill:#b4b4b4; stroke:none;" d="M263 173L264 174L263 173z"/>
<path style="fill:#cccccc; stroke:none;" d="M34 174L35 175L34 174z"/>
<path style="fill:#cecece; stroke:none;" d="M111 174L112 175L111 174z"/>
<path style="fill:#9a9a9a; stroke:none;" d="M137 174L138 175L137 174z"/>
<path style="fill:#9d9d9d; stroke:none;" d="M162 174L163 175L162 174z"/>
<path style="fill:#d3d3d3; stroke:none;" d="M188 174L189 175L188 174z"/>
<path style="fill:#878787; stroke:none;" d="M33 175L34 176L33 175z"/>
<path style="fill:#8e8e8e; stroke:none;" d="M112 175L113 176L112 175z"/>
<path style="fill:#7c7c7c; stroke:none;" d="M139 175L140 176L139 175z"/>
<path style="fill:#c5c5c5; stroke:none;" d="M140 175L141 176L140 175z"/>
<path style="fill:#d3d3d3; stroke:none;" d="M159 175L160 176L159 175z"/>
<path style="fill:#878787; stroke:none;" d="M160 175L161 176L160 175z"/>
<path style="fill:#9a9a9a; stroke:none;" d="M187 175L188 176L187 175z"/>
<path style="fill:#8c8c8c; stroke:none;" d="M266 175L267 176L266 175z"/>
<path style="fill:#9d9d9d; stroke:none;" d="M31 176L32 177L31 176z"/>
<path style="fill:#9c9c9c; stroke:none;" d="M62 176L62 179L62.6944 178.25L62.6944 177.806L62.6944 176.75L62 176z"/>
<path style="fill:#7a7a7a; stroke:none;" d="M142 176L143 177L142 176z"/>
<path style="fill:#a8a8a8; stroke:none;" d="M143 176L144 177L143 176z"/>
<path style="fill:#b8b8b8; stroke:none;" d="M156 176L157 177L156 176z"/>
<path style="fill:#878787; stroke:none;" d="M157 176L158 177L157 176z"/>
<path style="fill:#cecece; stroke:none;" d="M237.333 176.667L237.333 177.333L237.667 177.333L237.667 177L237.333 176.667z"/>
<path style="fill:#b1b1b1; stroke:none;" d="M268 176L269 177L268 176z"/>
<path style="fill:#bbbbbb; stroke:none;" d="M29 177L30 178L29 177z"/>
<path style="fill:#7b7b7b; stroke:none;" d="M147 177L147.778 177.722L148.306 177.75L149.111 177.944L149.972 177.972L150.944 178L153 178L152.222 177.278L151.694 177.25L150.889 177.056L150.028 177.028L149.056 177L147 177z"/>
<path style="fill:#d1d1d1; stroke:none;" d="M270 177L271 178L270 177z"/>
<path style="fill:#b0b0b0; stroke:none;" d="M114 178L115 179L114 178z"/>
<path style="fill:#c2c2c2; stroke:none;" d="M185 178L186 179L185 178z"/>
<path style="fill:#878787; stroke:none;" d="M271 178L272 179L271 178z"/>
<path style="fill:#8f8f8f; stroke:none;" d="M26 179L27 180L26 179z"/>
<path style="fill:#c7c7c7; stroke:none;" d="M61 179L62 180L61 179z"/>
<path style="fill:#939393; stroke:none;" d="M115 179L116 180L115 179z"/>
<path style="fill:#a1a1a1; stroke:none;" d="M184 179L185 180L184 179z"/>
<path style="fill:#ababab; stroke:none;" d="M238 179L239 180L238 179z"/>
<path style="fill:#a8a8a8; stroke:none;" d="M273 179L274 180L273 179z"/>
<path style="fill:#c2c2c2; stroke:none;" d="M24 180L25 181L24 180z"/>
<path style="fill:#777777; stroke:none;" d="M59 180L60 181L59 180z"/>
<path style="fill:#7e7e7e; stroke:none;" d="M116 180L117 181L116 180z"/>
<path style="fill:#909090; stroke:none;" d="M183 180L184 181L183 180z"/>
<path style="fill:#aeaeae; stroke:none;" d="M239 180L240 181L239 180z"/>
<path style="fill:#828282; stroke:none;" d="M23 181L24 182L23 181z"/>
<path style="fill:#a9a9a9; stroke:none;" d="M58 181L59 182L58 181z"/>
<path style="fill:#777777; stroke:none;" d="M117 181L118 182L117 181z"/>
<path style="fill:#838383; stroke:none;" d="M182 181L183 182L182 181z"/>
<path style="fill:#d3d3d3; stroke:none;" d="M240 181L241 182L240 181z"/>
<path style="fill:#999999; stroke:none;" d="M276 181L277 182L276 181z"/>
<path style="fill:#c7c7c7; stroke:none;" d="M21 182L22 183L21 182z"/>
<path style="fill:#777777; stroke:none;" d="M118 182L119 183L118 182z"/>
<path style="fill:#868686; stroke:none;" d="M181 182L182 183L181 182z"/>
<path style="fill:#999999; stroke:none;" d="M242 182L243 183L242 182z"/>
<path style="fill:#a4a4a4; stroke:none;" d="M20 183L21 184L20 183z"/>
<path style="fill:#ababab; stroke:none;" d="M55 183L56 184L55 183z"/>
<path style="fill:#848484; stroke:none;" d="M119 183L120 184L119 183z"/>
<path style="fill:#8a8a8a; stroke:none;" d="M180 183L181 184L180 183z"/>
<path style="fill:#7c7c7c; stroke:none;" d="M244 183L245 184L244 183z"/>
<path style="fill:#a4a4a4; stroke:none;" d="M279 183L280 184L279 183z"/>
<path style="fill:#848484; stroke:none;" d="M53 184L54 185L53 184z"/>
<path style="fill:#959595; stroke:none;" d="M120 184L121 185L120 184z"/>
<path style="fill:#a1a1a1; stroke:none;" d="M179 184L180 185L179 184z"/>
<path style="fill:#c1c1c1; stroke:none;" d="M245 184L246 185L245 184z"/>
<path style="fill:#7d7d7d; stroke:none;" d="M280 184L281 185L280 184z"/>
<path style="fill:#cacaca; stroke:none;" d="M52 185L53 186L52 185z"/>
<path style="fill:#b4b4b4; stroke:none;" d="M121 185L122 186L121 185z"/>
<path style="fill:#c0c0c0; stroke:none;" d="M178 185L179 186L178 185z"/>
<path style="fill:#a4a4a4; stroke:none;" d="M247 185L248 186L247 185z"/>
<path style="fill:#a6a6a6; stroke:none;" d="M50 186L51 187L50 186z"/>
<path style="fill:#828282; stroke:none;" d="M249 186L250 187L249 186z"/>
<path style="fill:#818181; stroke:none;" d="M48 187L49 188L48 187z"/>
<path style="fill:#8b8b8b; stroke:none;" d="M124 187L125 188L124 187z"/>
<path style="fill:#939393; stroke:none;" d="M175 187L176 188L175 187z"/>
<path style="fill:#cccccc; stroke:none;" d="M250 187L251 188L250 187z"/>
<path style="fill:#878787; stroke:none;" d="M15 188L16 189L15 188z"/>
<path style="fill:#bcbcbc; stroke:none;" d="M47 188L48 189L47 188z"/>
<path style="fill:#cacaca; stroke:none;" d="M125 188L126 189L125 188z"/>
<path style="fill:#c9c9c9; stroke:none;" d="M174 188L175 189L174 188z"/>
<path style="fill:#b0b0b0; stroke:none;" d="M252 188L253 189L252 188z"/>
<path style="fill:#808080; stroke:none;" d="M284 188L285 189L284 188z"/>
<path style="fill:#bfbfbf; stroke:none;" d="M14 189L15 190L14 189z"/>
<path style="fill:#a3a3a3; stroke:none;" d="M45 189L46 190L45 189z"/>
<path style="fill:#9f9f9f; stroke:none;" d="M127 189L128 190L127 189z"/>
<path style="fill:#a1a1a1; stroke:none;" d="M172 189L173 190L172 189z"/>
<path style="fill:#8b8b8b; stroke:none;" d="M254 189L255 190L254 189z"/>
<path style="fill:#b7b7b7; stroke:none;" d="M285 189L286 190L285 189z"/>
<path style="fill:#7f7f7f; stroke:none;" d="M43 190L44 191L43 190z"/>
<path style="fill:#878787; stroke:none;" d="M129 190L130 191L129 190z"/>
<path style="fill:#8a8a8a; stroke:none;" d="M170 190L171 191L170 190z"/>
<path style="fill:#d4d4d4; stroke:none;" d="M255 190L256 191L255 190z"/>
<path style="fill:#bbbbbb; stroke:none;" d="M13 191L14 192L13 191z"/>
<path style="fill:#c7c7c7; stroke:none;" d="M42 191L43 192L42 191z"/>
<path style="fill:#848484; stroke:none;" d="M131 191L132 192L131 191M168 191L169 192L168 191z"/>
<path style="fill:#a3a3a3; stroke:none;" d="M257 191L258 192L257 191z"/>
<path style="fill:#b4b4b4; stroke:none;" d="M286 191L287 192L286 191z"/>
<path style="fill:#7f7f7f; stroke:none;" d="M13 192L14 193L13 192z"/>
<path style="fill:#999999; stroke:none;" d="M40 192L41 193L40 192z"/>
<path style="fill:#ababab; stroke:none;" d="M133 192L134 193L133 192z"/>
<path style="fill:#9f9f9f; stroke:none;" d="M166 192L167 193L166 192z"/>
<path style="fill:#797979; stroke:none;" d="M286 192L287 193L286 192z"/>
<path style="fill:#cdcdcd; stroke:none;" d="M39 193L40 194L39 193z"/>
<path style="fill:#cecece; stroke:none;" d="M135 193L136 194L135 193z"/>
<path style="fill:#939393; stroke:none;" d="M136 193L137 194L136 193M163 193L164 194L163 193z"/>
<path style="fill:#cfcfcf; stroke:none;" d="M164 193L165 194L164 193z"/>
<path style="fill:#aaaaaa; stroke:none;" d="M260 193L261 194L260 193z"/>
<path style="fill:#b7b7b7; stroke:none;" d="M12.3333 194.667L12.3333 195L12.6667 195.333L12.6667 194.667L12.3333 194.667z"/>
<path style="fill:#bbbbbb; stroke:none;" d="M139 194L140 195L139 194z"/>
<path style="fill:#717171; stroke:none;" d="M140.667 194.333L141 194.667L141.333 194.667L141 194.333L140.667 194.333z"/>
<path style="fill:#8f8f8f; stroke:none;" d="M158.667 194.333L159 194.667L159.333 194.667L159 194.333L158.667 194.333z"/>
<path style="fill:#bbbbbb; stroke:none;" d="M160 194L161 195L160 194z"/>
<path style="fill:#b7b7b7; stroke:none;" d="M287.333 194.667L287.333 195.333L287.667 195.333L287.667 194.667L287.333 194.667z"/>
<path style="fill:#898989; stroke:none;" d="M36 195L37 196L36 195z"/>
<path style="fill:#9f9f9f; stroke:none;" d="M144 195L144.778 195.722L145.306 195.75L146.111 195.944L147.028 195.972L148.944 196L149.944 196L152 196L151.222 195.278L150.694 195.25L149.889 195.056L148.972 195.028L147.056 195L146.056 195L144 195z"/>
<path style="fill:#b7b7b7; stroke:none;" d="M152 195L152.722 195.722L153.25 195.75L155 196L154.278 195.278L153.75 195.25L152 195z"/>
<path style="fill:#7e7e7e; stroke:none;" d="M12 196L12 202L12.7222 201.222L12.75 200.694L12.9444 199.889L12.9444 198.111L12.75 197.306L12.7222 196.778L12 196z"/>
<path style="fill:#848484; stroke:none;" d="M35 196L36 197L35 196z"/>
<path style="fill:#7f7f7f; stroke:none;" d="M287 196L287 202L287.722 201.222L287.75 200.694L287.944 199.889L287.944 198.111L287.75 197.306L287.722 196.778L287 196z"/>
<path style="fill:#cacaca; stroke:none;" d="M34 198L35 199L34 198z"/>
<path style="fill:#b5b5b5; stroke:none;" d="M265 198L266 199L265 198z"/>
<path style="fill:#a6a6a6; stroke:none;" d="M33 200L33 204L33.7222 203.222L33.7222 202.722L33.8889 202L33.7222 200.778L33 200z"/>
<path style="fill:#8f8f8f; stroke:none;" d="M266 200L266 203L266.694 202.25L266.694 201.194L266.694 200.75L266 200z"/>
<path style="fill:#c0c0c0; stroke:none;" d="M12 202L13 203L12 202z"/>
<path style="fill:#c1c1c1; stroke:none;" d="M287 202L288 203L287 202z"/>
<path style="fill:#7d7d7d; stroke:none;" d="M13 204L14 205L13 204z"/>
<path style="fill:#7f7f7f; stroke:none;" d="M286 204L287 205L286 204z"/>
<path style="fill:#c0c0c0; stroke:none;" d="M13 205L14 206L13 205z"/>
<path style="fill:#afafaf; stroke:none;" d="M265 205L266 206L265 205z"/>
<path style="fill:#c1c1c1; stroke:none;" d="M286 205L287 206L286 205z"/>
<path style="fill:#a5a5a5; stroke:none;" d="M34 206L35 207L34 206z"/>
<path style="fill:#b0b0b0; stroke:none;" d="M14 207L15 208L14 207z"/>
<path style="fill:#c8c8c8; stroke:none;" d="M264 207L265 208L264 207z"/>
<path style="fill:#b2b2b2; stroke:none;" d="M285 207L286 208L285 207z"/>
<path style="fill:#bebebe; stroke:none;" d="M35 208L36 209L35 208z"/>
<path style="fill:#aeaeae; stroke:none;" d="M15 209L16 210L15 209z"/>
<path style="fill:#c6c6c6; stroke:none;" d="M263 209L264 210L263 209z"/>
<path style="fill:#b0b0b0; stroke:none;" d="M284 209L285 210L284 209z"/>
<path style="fill:#b7b7b7; stroke:none;" d="M36 210L37 211L36 210M16 211L17 212L16 211z"/>
<path style="fill:#b0b0b0; stroke:none;" d="M262 211L263 212L262 211z"/>
<path style="fill:#b9b9b9; stroke:none;" d="M283 211L284 212L283 211z"/>
<path style="fill:#a6a6a6; stroke:none;" d="M37 212L38 213L37 212z"/>
<path style="fill:#d4d4d4; stroke:none;" d="M79 212L80 213L79 212z"/>
<path style="fill:#878787; stroke:none;" d="M219 212L220 213L219 212z"/>
<path style="fill:#cacaca; stroke:none;" d="M17 213L18 214L17 213z"/>
<path style="fill:#8c8c8c; stroke:none;" d="M78 213L79 214L78 213z"/>
<path style="fill:#c5c5c5; stroke:none;" d="M83 213L84 214L83 213z"/>
<path style="fill:#989898; stroke:none;" d="M221 213L222 214L221 213z"/>
<path style="fill:#979797; stroke:none;" d="M261 213L262 214L261 213z"/>
<path style="fill:#cccccc; stroke:none;" d="M282 213L283 214L282 213z"/>
<path style="fill:#7d7d7d; stroke:none;" d="M18 214L19 215L18 214z"/>
<path style="fill:#828282; stroke:none;" d="M38 214L39 215L38 214z"/>
<path style="fill:#a4a4a4; stroke:none;" d="M76 214L77 215L76 214z"/>
<path style="fill:#b9b9b9; stroke:none;" d="M84 214L85 215L84 214z"/>
<path style="fill:#c5c5c5; stroke:none;" d="M215 214L216 215L215 214z"/>
<path style="fill:#b0b0b0; stroke:none;" d="M223 214L224 215L223 214z"/>
<path style="fill:#7b7b7b; stroke:none;" d="M281 214L282 215L281 214z"/>
<path style="fill:#c8c8c8; stroke:none;" d="M39 215L40 216L39 215z"/>
<path style="fill:#b4b4b4; stroke:none;" d="M74 215L75 216L74 215z"/>
<path style="fill:#aeaeae; stroke:none;" d="M85 215L86 216L85 215z"/>
<path style="fill:#b1b1b1; stroke:none;" d="M214 215L215 216L214 215z"/>
<path style="fill:#cdcdcd; stroke:none;" d="M225 215L226 216L225 215z"/>
<path style="fill:#7c7c7c; stroke:none;" d="M260 215L261 216L260 215z"/>
<path style="fill:#959595; stroke:none;" d="M19 216L20 217L19 216z"/>
<path style="fill:#cfcfcf; stroke:none;" d="M72 216L73 217L72 216z"/>
<path style="fill:#989898; stroke:none;" d="M86 216L87 217L86 216z"/>
<path style="fill:#a4a4a4; stroke:none;" d="M213 216L214 217L213 216z"/>
<path style="fill:#7b7b7b; stroke:none;" d="M226 216L227 217L226 216z"/>
<path style="fill:#c3c3c3; stroke:none;" d="M259 216L260 217L259 216z"/>
<path style="fill:#979797; stroke:none;" d="M280 216L281 217L280 216z"/>
<path style="fill:#8c8c8c; stroke:none;" d="M40 217L41 218L40 217z"/>
<path style="fill:#808080; stroke:none;" d="M71 217L72 218L71 217z"/>
<path style="fill:#8d8d8d; stroke:none;" d="M87 217L88 218L87 217z"/>
<path style="fill:#8a8a8a; stroke:none;" d="M212 217L213 218L212 217z"/>
<path style="fill:#939393; stroke:none;" d="M228 217L229 218L228 217z"/>
<path style="fill:#adadad; stroke:none;" d="M20 218L21 219L20 218z"/>
<path style="fill:#c7c7c7; stroke:none;" d="M41 218L42 219L41 218z"/>
<path style="fill:#939393; stroke:none;" d="M69 218L70 219L69 218z"/>
<path style="fill:#848484; stroke:none;" d="M88 218L89 219L88 218z"/>
<path style="fill:#787878; stroke:none;" d="M211 218L212 219L211 218z"/>
<path style="fill:#adadad; stroke:none;" d="M230 218L231 219L230 218z"/>
<path style="fill:#9f9f9f; stroke:none;" d="M258 218L259 219L258 218z"/>
<path style="fill:#aeaeae; stroke:none;" d="M279 218L280 219L279 218z"/>
<path style="fill:#aaaaaa; stroke:none;" d="M67 219L68 220L67 219z"/>
<path style="fill:#767676; stroke:none;" d="M89 219L90 220L89 219z"/>
<path style="fill:#c5c5c5; stroke:none;" d="M232 219L233 220L232 219z"/>
<path style="fill:#c6c6c6; stroke:none;" d="M21 220L22 221L21 220z"/>
<path style="fill:#777777; stroke:none;" d="M42 220L43 221L42 220z"/>
<path style="fill:#c3c3c3; stroke:none;" d="M65 220L66 221L65 220z"/>
<path style="fill:#cdcdcd; stroke:none;" d="M208 220L209 221L208 220z"/>
<path style="fill:#d3d3d3; stroke:none;" d="M234 220L235 221L234 220z"/>
<path style="fill:#c7c7c7; stroke:none;" d="M278 220L279 221L278 220z"/>
<path style="fill:#787878; stroke:none;" d="M22 221L23 222L22 221z"/>
<path style="fill:#a0a0a0; stroke:none;" d="M43 221L44 222L43 221z"/>
<path style="fill:#d1d1d1; stroke:none;" d="M63 221L64 222L63 221z"/>
<path style="fill:#d3d3d3; stroke:none;" d="M92 221L93 222L92 221z"/>
<path style="fill:#afafaf; stroke:none;" d="M207 221L208 222L207 221z"/>
<path style="fill:#858585; stroke:none;" d="M235 221L236 222L235 221z"/>
<path style="fill:#a5a5a5; stroke:none;" d="M256 221L257 222L256 221z"/>
<path style="fill:#797979; stroke:none;" d="M277 221L278 222L277 221z"/>
<path style="fill:#c7c7c7; stroke:none;" d="M44 222L45 223L44 222z"/>
<path style="fill:#808080; stroke:none;" d="M62 222L63 223L62 222z"/>
<path style="fill:#b4b4b4; stroke:none;" d="M93 222L94 223L93 222z"/>
<path style="fill:#848484; stroke:none;" d="M206 222L207 223L206 222z"/>
<path style="fill:#959595; stroke:none;" d="M237 222L238 223L237 222z"/>
<path style="fill:#919191; stroke:none;" d="M23 223L24 224L23 223z"/>
<path style="fill:#939393; stroke:none;" d="M60 223L61 224L60 223z"/>
<path style="fill:#898989; stroke:none;" d="M94 223L95 224L94 223z"/>
<path style="fill:#a1a1a1; stroke:none;" d="M239 223L240 224L239 223z"/>
<path style="fill:#919191; stroke:none;" d="M276 223L277 224L276 223z"/>
<path style="fill:#a5a5a5; stroke:none;" d="M58 224L59 225L58 224z"/>
<path style="fill:#b1b1b1; stroke:none;" d="M203 224L204 225L203 224z"/>
<path style="fill:#9a9a9a; stroke:none;" d="M241 224L242 225L241 224z"/>
<path style="fill:#adadad; stroke:none;" d="M24 225L25 226L24 225z"/>
<path style="fill:#a6a6a6; stroke:none;" d="M56 225L57 226L56 225z"/>
<path style="fill:#afafaf; stroke:none;" d="M97 225L98 226L97 225z"/>
<path style="fill:#7a7a7a; stroke:none;" d="M202 225L203 226L202 225z"/>
<path style="fill:#949494; stroke:none;" d="M243 225L244 226L243 225z"/>
<path style="fill:#adadad; stroke:none;" d="M275 225L276 226L275 225z"/>
<path style="fill:#979797; stroke:none;" d="M48 226L49 227L48 226z"/>
<path style="fill:#939393; stroke:none;" d="M54 226L55 227L54 226z"/>
<path style="fill:#777777; stroke:none;" d="M98 226L99 227L98 226z"/>
<path style="fill:#b9b9b9; stroke:none;" d="M200 226L201 227L200 226z"/>
<path style="fill:#a3a3a3; stroke:none;" d="M246 226L247 227L246 226z"/>
<path style="fill:#e7e7e7; stroke:none;" d="M247 226L247.778 226.722L248.25 226.75L249.056 226.944L251 227L250.222 226.278L249.75 226.25L248.944 226.056L247 226z"/>
<path style="fill:#9a9a9a; stroke:none;" d="M251 226L252 227L251 226z"/>
<path style="fill:#cacaca; stroke:none;" d="M25 227L26 228L25 227z"/>
<path style="fill:#6f6f6f; stroke:none;" d="M50.6667 227.333L51 227.667L51.3333 227.667L51.3333 227.333L50.6667 227.333z"/>
<path style="fill:#b5b5b5; stroke:none;" d="M100 227L101 228L100 227z"/>
<path style="fill:#7e7e7e; stroke:none;" d="M199 227L200 228L199 227z"/>
<path style="fill:#c8c8c8; stroke:none;" d="M274 227L275 228L274 227z"/>
<path style="fill:#7e7e7e; stroke:none;" d="M26 228L27 229L26 228z"/>
<path style="fill:#b0b0b0; stroke:none;" d="M197 228L198 229L197 228z"/>
<path style="fill:#7b7b7b; stroke:none;" d="M273 228L274 229L273 228z"/>
<path style="fill:#8c8c8c; stroke:none;" d="M103 229L104 230L103 229z"/>
<path style="fill:#d2d2d2; stroke:none;" d="M195 229L196 230L195 229z"/>
<path style="fill:#9a9a9a; stroke:none;" d="M27 230L28 231L27 230z"/>
<path style="fill:#afafaf; stroke:none;" d="M105 230L106 231L105 230z"/>
<path style="fill:#838383; stroke:none;" d="M194 230L195 231L194 230z"/>
<path style="fill:#989898; stroke:none;" d="M272 230L273 231L272 230z"/>
<path style="fill:#b7b7b7; stroke:none;" d="M107 231L108 232L107 231z"/>
<path style="fill:#939393; stroke:none;" d="M192 231L193 232L192 231z"/>
<path style="fill:#b7b7b7; stroke:none;" d="M28 232L29 233L28 232z"/>
<path style="fill:#c2c2c2; stroke:none;" d="M109 232L110 233L109 232z"/>
<path style="fill:#9f9f9f; stroke:none;" d="M190 232L191 233L190 232z"/>
<path style="fill:#b4b4b4; stroke:none;" d="M271 232L272 233L271 232z"/>
<path style="fill:#b9b9b9; stroke:none;" d="M111 233L112 234L111 233z"/>
<path style="fill:#979797; stroke:none;" d="M188 233L189 234L188 233z"/>
<path style="fill:#d3d3d3; stroke:none;" d="M29 234L30 235L29 234z"/>
<path style="fill:#7b7b7b; stroke:none;" d="M77 234L78 235L77 234z"/>
<path style="fill:#7a7a7a; stroke:none;" d="M80 234L81 235L80 234z"/>
<path style="fill:#adadad; stroke:none;" d="M113 234L114 235L113 234z"/>
<path style="fill:#8f8f8f; stroke:none;" d="M186 234L187 235L186 234z"/>
<path style="fill:#d0d0d0; stroke:none;" d="M270 234L271 235L270 234z"/>
<path style="fill:#8b8b8b; stroke:none;" d="M30 235L31 236L30 235z"/>
<path style="fill:#c5c5c5; stroke:none;" d="M76 235L77 236L76 235z"/>
<path style="fill:#9f9f9f; stroke:none;" d="M81 235L82 236L81 235z"/>
<path style="fill:#909090; stroke:none;" d="M115 235L116 236L115 235z"/>
<path style="fill:#bebebe; stroke:none;" d="M183 235L184 236L183 235z"/>
<path style="fill:#999999; stroke:none;" d="M219 235L220 236L219 235z"/>
<path style="fill:#959595; stroke:none;" d="M223 235L224 236L223 235z"/>
<path style="fill:#878787; stroke:none;" d="M269 235L270 236L269 235z"/>
<path style="fill:#a4a4a4; stroke:none;" d="M74 236L75 237L74 236z"/>
<path style="fill:#c7c7c7; stroke:none;" d="M82 236L83 237L82 236z"/>
<path style="fill:#b9b9b9; stroke:none;" d="M118 236L119 237L118 236z"/>
<path style="fill:#989898; stroke:none;" d="M181 236L182 237L181 236z"/>
<path style="fill:#919191; stroke:none;" d="M225 236L226 237L225 236z"/>
<path style="fill:#b6b6b6; stroke:none;" d="M31 237L32 238L31 237z"/>
<path style="fill:#848484; stroke:none;" d="M72 237L73 238L72 237z"/>
<path style="fill:#888888; stroke:none;" d="M120 237L121 238L120 237z"/>
<path style="fill:#cacaca; stroke:none;" d="M121 237L122 238L121 237z"/>
<path style="fill:#9f9f9f; stroke:none;" d="M178 237L179 238L178 237z"/>
<path style="fill:#9a9a9a; stroke:none;" d="M216 237L217 238L216 237z"/>
<path style="fill:#7a7a7a; stroke:none;" d="M227 237L228 238L227 237z"/>
<path style="fill:#b2b2b2; stroke:none;" d="M268 237L269 238L268 237z"/>
<path style="fill:#cfcfcf; stroke:none;" d="M71 238L72 239L71 238z"/>
<path style="fill:#8a8a8a; stroke:none;" d="M85 238L86 239L85 238z"/>
<path style="fill:#939393; stroke:none;" d="M123 238L124 239L123 238z"/>
<path style="fill:#cdcdcd; stroke:none;" d="M124 238L125 239L124 238z"/>
<path style="fill:#cacaca; stroke:none;" d="M174 238L175 239L174 238z"/>
<path style="fill:#949494; stroke:none;" d="M175 238L176 239L175 238z"/>
<path style="fill:#cfcfcf; stroke:none;" d="M215 238L216 239L215 238z"/>
<path style="fill:#c7c7c7; stroke:none;" d="M228 238L229 239L228 238z"/>
<path style="fill:#aeaeae; stroke:none;" d="M69 239L70 240L69 239z"/>
<path style="fill:#bcbcbc; stroke:none;" d="M86 239L87 240L86 239z"/>
<path style="fill:#8e8e8e; stroke:none;" d="M126 239L127 240L126 239z"/>
<path style="fill:#c7c7c7; stroke:none;" d="M127 239L128 240L127 239z"/>
<path style="fill:#b9b9b9; stroke:none;" d="M171 239L172 240L171 239z"/>
<path style="fill:#838383; stroke:none;" d="M172 239L173 240L172 239z"/>
<path style="fill:#898989; stroke:none;" d="M213 239L214 240L213 239z"/>
<path style="fill:#afafaf; stroke:none;" d="M230 239L231 240L230 239z"/>
<path style="fill:#b1b1b1; stroke:none;" d="M33 240L34 241L33 240z"/>
<path style="fill:#8e8e8e; stroke:none;" d="M67 240L68 241L67 240z"/>
<path style="fill:#7b7b7b; stroke:none;" d="M88 240L89 241L88 240z"/>
<path style="fill:#888888; stroke:none;" d="M129 240L130 241L129 240z"/>
<path style="fill:#c3c3c3; stroke:none;" d="M130 240L131 241L130 240z"/>
<path style="fill:#a8a8a8; stroke:none;" d="M168 240L169 241L168 240z"/>
<path style="fill:#c0c0c0; stroke:none;" d="M212 240L213 241L212 240z"/>
<path style="fill:#979797; stroke:none;" d="M232 240L233 241L232 240z"/>
<path style="fill:#aeaeae; stroke:none;" d="M266 240L267 241L266 240z"/>
<path style="fill:#7c7c7c; stroke:none;" d="M34 241L35 242L34 241z"/>
<path style="fill:#b5b5b5; stroke:none;" d="M89 241L90 242L89 241z"/>
<path style="fill:#a8a8a8; stroke:none;" d="M131 241L131 248L131.722 247.222L131.75 246.694L131.944 245.889L131.972 244.972L131.944 243.111L131.75 242.306L131.722 241.778L131 241z"/>
<path style="fill:#7d7d7d; stroke:none;" d="M210 241L211 242L210 241z"/>
<path style="fill:#7f7f7f; stroke:none;" d="M234 241L235 242L234 241z"/>
<path style="fill:#7a7a7a; stroke:none;" d="M265 241L266 242L265 241z"/>
<path style="fill:#c0c0c0; stroke:none;" d="M64 242L65 243L64 242z"/>
<path style="fill:#8b8b8b; stroke:none;" d="M91 242L92 243L91 242z"/>
<path style="fill:#b9b9b9; stroke:none;" d="M209 242L210 243L209 242z"/>
<path style="fill:#cdcdcd; stroke:none;" d="M235 242L236 243L235 242z"/>
<path style="fill:#a5a5a5; stroke:none;" d="M62 243L63 244L62 243z"/>
<path style="fill:#d0d0d0; stroke:none;" d="M92 243L93 244L92 243z"/>
<path style="fill:#909090; stroke:none;" d="M207 243L208 244L207 243z"/>
<path style="fill:#b6b6b6; stroke:none;" d="M237 243L238 244L237 243z"/>
<path style="fill:#9a9a9a; stroke:none;" d="M60 244L61 245L60 244z"/>
<path style="fill:#adadad; stroke:none;" d="M94 244L95 245L94 244z"/>
<path style="fill:#a7a7a7; stroke:none;" d="M239 244L240 245L239 244z"/>
<path style="fill:#898989; stroke:none;" d="M38 245L39 246L38 245z"/>
<path style="fill:#919191; stroke:none;" d="M58 245L59 246L58 245z"/>
<path style="fill:#949494; stroke:none;" d="M96 245L97 246L96 245z"/>
<path style="fill:#b9b9b9; stroke:none;" d="M204 245L205 246L204 245z"/>
<path style="fill:#a1a1a1; stroke:none;" d="M241 245L242 246L241 245z"/>
<path style="fill:#909090; stroke:none;" d="M261 245L262 246L261 245z"/>
<path style="fill:#d3d3d3; stroke:none;" d="M39 246L40 247L39 246z"/>
<path style="fill:#7d7d7d; stroke:none;" d="M40 246L41 247L40 246z"/>
<path style="fill:#a1a1a1; stroke:none;" d="M56 246L57 247L56 246z"/>
<path style="fill:#7c7c7c; stroke:none;" d="M98 246L99 247L98 246z"/>
<path style="fill:#a5a5a5; stroke:none;" d="M202 246L203 247L202 246z"/>
<path style="fill:#ababab; stroke:none;" d="M243 246L244 247L243 246z"/>
<path style="fill:#878787; stroke:none;" d="M259 246L260 247L259 246z"/>
<path style="fill:#9f9f9f; stroke:none;" d="M42 247L43 248L42 247z"/>
<path style="fill:#828282; stroke:none;" d="M53 247L54 248L53 247z"/>
<path style="fill:#bbbbbb; stroke:none;" d="M54 247L55 248L54 247z"/>
<path style="fill:#d0d0d0; stroke:none;" d="M99 247L100 248L99 247z"/>
<path style="fill:#959595; stroke:none;" d="M200 247L201 248L200 247z"/>
<path style="fill:#c3c3c3; stroke:none;" d="M245 247L246 248L245 247z"/>
<path style="fill:#848484; stroke:none;" d="M246 247L247 248L246 247z"/>
<path style="fill:#a6a6a6; stroke:none;" d="M257 247L258 248L257 247z"/>
<path style="fill:#878787; stroke:none;" d="M45 248L45.7778 248.722L46.3056 248.75L47.0556 248.944L47.9722 248.972L50 249L49.2222 248.278L48.6944 248.25L47.9444 248.056L47.0278 248.028L45 248z"/>
<path style="fill:#c9c9c9; stroke:none;" d="M50.6667 248.333L51 248.667L51.3333 248.667L51 248.333L50.6667 248.333z"/>
<path style="fill:#c7c7c7; stroke:none;" d="M101 248L102 249L101 248z"/>
<path style="fill:#7e7e7e; stroke:none;" d="M131 248L131 254L131.722 253.222L131.75 252.694L131.944 251.889L131.944 250.111L131.75 249.306L131.722 248.778L131 248z"/>
<path style="fill:#929292; stroke:none;" d="M198 248L199 249L198 248z"/>
<path style="fill:#aaaaaa; stroke:none;" d="M248.667 248.333L249 248.667L249.333 248.667L249 248.333L248.667 248.333z"/>
<path style="fill:#818181; stroke:none;" d="M250 248L250.778 248.722L251.25 248.75L252.056 248.944L254 249L253.222 248.278L252.75 248.25L251.944 248.056L250 248z"/>
<path style="fill:#b5b5b5; stroke:none;" d="M254 248L255 249L254 248z"/>
<path style="fill:#c1c1c1; stroke:none;" d="M103 249L104 250L103 249z"/>
<path style="fill:#909090; stroke:none;" d="M196 249L197 250L196 249z"/>
<path style="fill:#cfcfcf; stroke:none;" d="M105 250L106 251L105 250z"/>
<path style="fill:#989898; stroke:none;" d="M194 250L195 251L194 250z"/>
<path style="fill:#d4d4d4; stroke:none;" d="M107 251L108 252L107 251z"/>
<path style="fill:#808080; stroke:none;" d="M108 251L109 252L108 251z"/>
<path style="fill:#b0b0b0; stroke:none;" d="M192 251L193 252L192 251z"/>
<path style="fill:#808080; stroke:none;" d="M110 252L111 253L110 252z"/>
<path style="fill:#c3c3c3; stroke:none;" d="M190 252L191 253L190 252z"/>
<path style="fill:#878787; stroke:none;" d="M112 253L113 254L112 253z"/>
<path style="fill:#848484; stroke:none;" d="M187 253L188 254L187 253z"/>
<path style="fill:#6f6f6f; stroke:none;" d="M113 254L113 265L113.722 264.222L113.75 263.694L113.944 262.889L113.972 261.972L114 260L114 258L113.972 257.028L113.944 256.111L113.75 255.306L113.722 254.778L113 254z"/>
<path style="fill:#868686; stroke:none;" d="M186 254L186 268L186.722 267.222L186.75 266.694L186.944 265.889L186.972 264.972L187 264L187 263L187 261L187 259L187 258L186.972 257.028L186.944 256.111L186.75 255.306L186.722 254.778L186 254z"/>
<path style="fill:#cfcfcf; stroke:none;" d="M167 259L167 263L167.722 262.222L167.722 261.722L167.889 261L167.722 259.778L167 259z"/>
<path style="fill:#c2c2c2; stroke:none;" d="M132 260L132 263L132.694 262.25L132.694 261.194L132.694 260.75L132 260z"/>
<path style="fill:#848484; stroke:none;" d="M132 263L133 264L132 263z"/>
<path style="fill:#8b8b8b; stroke:none;" d="M167 263L168 264L167 263z"/>
<path style="fill:#878787; stroke:none;" d="M113 265L113 268L113.694 267.25L113.694 266.806L113.694 265.75L113 265z"/>
<path style="fill:#bebebe; stroke:none;" d="M133 265L134 266L133 265z"/>
<path style="fill:#cdcdcd; stroke:none;" d="M166 265L167 266L166 265z"/>
<path style="fill:#7b7b7b; stroke:none;" d="M134 267L135 268L134 267z"/>
<path style="fill:#8b8b8b; stroke:none;" d="M165 267L166 268L165 267z"/>
<path style="fill:#bcbcbc; stroke:none;" d="M113 268L113 271L113.694 270.25L113.694 269.194L113.694 268.75L113 268M136 268L137 269L136 268z"/>
<path style="fill:#c6c6c6; stroke:none;" d="M163 268L164 269L163 268z"/>
<path style="fill:#b4b4b4; stroke:none;" d="M186 268L186 271L186.694 270.25L186.694 269.194L186.694 268.75L186 268z"/>
<path style="fill:#a2a2a2; stroke:none;" d="M138.667 269.333L139 269.667L139.333 269.667L139 269.333L138.667 269.333z"/>
<path style="fill:#cacaca; stroke:none;" d="M140 269L140.722 269.722L141.25 269.75L143 270L142.278 269.278L141.75 269.25L140 269z"/>
<path style="fill:#d8d8d8; stroke:none;" d="M156.667 269.333L157 269.667L157.333 269.667L157 269.333L156.667 269.333z"/>
<path style="fill:#bdbdbd; stroke:none;" d="M158 269L158.722 269.722L159.25 269.75L161 270L160.278 269.278L159.75 269.25L158 269z"/>
<path style="fill:#848484; stroke:none;" d="M161 269L162 270L161 269z"/>
<path style="fill:#909090; stroke:none;" d="M114 273L115 274L114 273z"/>
<path style="fill:#c5c5c5; stroke:none;" d="M114 274L115 275L114 274z"/>
<path style="fill:#a1a1a1; stroke:none;" d="M185 274L186 275L185 274z"/>
<path style="fill:#929292; stroke:none;" d="M115 276L116 277L115 276z"/>
<path style="fill:#b7b7b7; stroke:none;" d="M184 277L185 278L184 277z"/>
<path style="fill:#929292; stroke:none;" d="M116 278L117 279L116 278z"/>
<path style="fill:#d2d2d2; stroke:none;" d="M183 279L184 280L183 279z"/>
<path style="fill:#cdcdcd; stroke:none;" d="M117 280L118 281L117 280z"/>
<path style="fill:#9f9f9f; stroke:none;" d="M182 280L183 281L182 280z"/>
<path style="fill:#a9a9a9; stroke:none;" d="M118 281L119 282L118 281z"/>
<path style="fill:#7f7f7f; stroke:none;" d="M181 281L182 282L181 281z"/>
<path style="fill:#ababab; stroke:none;" d="M119 282L120 283L119 282z"/>
<path style="fill:#b2b2b2; stroke:none;" d="M120 283L121 284L120 283z"/>
<path style="fill:#7c7c7c; stroke:none;" d="M178 284L179 285L178 284z"/>
<path style="fill:#979797; stroke:none;" d="M123 285L124 286L123 285z"/>
<path style="fill:#acacac; stroke:none;" d="M177 285L178 286L177 285z"/>
<path style="fill:#8c8c8c; stroke:none;" d="M125 286L126 287L125 286z"/>
<path style="fill:#8d8d8d; stroke:none;" d="M174 286L175 287L174 286z"/>
<path style="fill:#b9b9b9; stroke:none;" d="M175 286L176 287L175 286z"/>
<path style="fill:#b0b0b0; stroke:none;" d="M127.667 287.333L128 287.667L128.333 287.667L128.333 287.333L127.667 287.333z"/>
<path style="fill:#858585; stroke:none;" d="M129 287L129.722 287.722L130.25 287.75L132 288L131.278 287.278L130.75 287.25L129 287z"/>
<path style="fill:#636363; stroke:none;" d="M132 287L132.778 287.722L133.306 287.75L134.111 287.944L135.028 287.972L136 288L137 288L139 288L149 288L148.222 287.278L147.694 287.25L146.889 287.056L145.972 287.028L145 287L144 287L142 287L132 287z"/>
<path style="fill:#7b7b7b; stroke:none;" d="M149 287L149.778 287.722L150.306 287.75L151.111 287.944L152.028 287.972L152.944 288L153.944 288L156 288L155.222 287.278L154.694 287.25L153.889 287.056L152.972 287.028L152.056 287L151.056 287L149 287z"/>
<path style="fill:#9f9f9f; stroke:none;" d="M156 287L156.778 287.722L157.306 287.75L158.111 287.944L159.028 287.972L161 288L161.944 288L165 288L164.222 287.278L163.694 287.25L162.889 287.056L161.972 287.028L160 287L159.056 287L156 287z"/>
<path style="fill:#bababa; stroke:none;" d="M165 287L165.722 287.722L166.25 287.75L168 288L167.278 287.278L166.75 287.25L165 287z"/>
<path style="fill:#d5d5d5; stroke:none;" d="M168 287L168.722 287.722L169.25 287.75L171 288L170.278 287.278L169.75 287.25L168 287z"/>
</svg>
