<?xml version="1.0" standalone="no"?>
<!DOCTYPE svg PUBLIC "-//W3C//DTD SVG 20010904//EN"
 "http://www.w3.org/TR/2001/REC-SVG-20010904/DTD/svg10.dtd">
<svg version="1.0" xmlns="http://www.w3.org/2000/svg"
 width="225.000000pt" height="225.000000pt" viewBox="0 0 225.000000 225.000000"
 preserveAspectRatio="xMidYMid meet">

<g transform="translate(0.000000,225.000000) scale(0.100000,-0.100000)"
fill="#000000" stroke="none">
<path d="M940 2153 c-23 -9 -60 -45 -76 -75 -8 -16 -14 -57 -14 -100 l-1 -73
-73 -33 c-40 -19 -96 -51 -125 -73 -28 -21 -55 -39 -60 -39 -5 0 -49 23 -98
51 -65 38 -98 51 -129 51 -71 2 -95 -22 -189 -186 -81 -142 -86 -154 -82 -199
5 -61 30 -88 142 -152 73 -42 84 -52 78 -70 -8 -26 -8 -234 0 -261 6 -17 -4
-27 -76 -67 -110 -62 -139 -93 -144 -154 -4 -45 0 -57 84 -202 81 -142 91
-156 130 -173 57 -25 89 -18 197 46 l90 53 50 -39 c28 -21 86 -55 128 -76 l77
-37 0 -70 c1 -84 21 -130 71 -163 34 -22 40 -23 217 -20 178 3 182 4 208 28
43 40 55 73 55 152 l1 73 73 33 c40 19 96 51 125 73 28 21 56 39 61 39 5 0 47
-22 92 -49 105 -61 134 -68 190 -43 40 17 50 30 131 173 84 145 88 157 84 202
-5 61 -30 88 -142 152 -73 42 -84 52 -78 70 8 26 8 234 0 261 -6 17 4 27 76
67 110 62 139 93 144 154 4 45 -1 57 -72 183 -87 152 -114 186 -162 199 -44
13 -81 1 -183 -57 l-84 -49 -50 39 c-27 21 -84 56 -127 76 l-78 37 -1 70 c0
83 -20 129 -69 162 -32 22 -43 23 -205 22 -94 0 -178 -3 -186 -6z m299 -147
c18 -17 21 -30 21 -110 l0 -91 75 -24 c88 -28 175 -78 250 -144 30 -26 56 -47
58 -47 3 0 49 25 102 56 133 76 145 74 207 -31 72 -120 69 -128 -72 -211 -93
-54 -101 -61 -96 -84 24 -116 29 -194 18 -278 -7 -48 -15 -99 -18 -113 -5 -24
1 -30 87 -79 150 -87 153 -94 83 -213 -65 -111 -71 -112 -206 -37 l-108 61
-54 -48 c-76 -67 -169 -120 -253 -146 l-73 -22 0 -91 c0 -122 -7 -129 -135
-129 -126 0 -133 7 -137 127 l-3 91 -65 21 c-97 33 -182 81 -250 143 l-60 55
-110 -62 c-103 -58 -111 -61 -137 -48 -31 15 -111 140 -112 176 -2 41 16 59
119 118 55 32 100 63 100 68 -1 6 -7 38 -15 71 -19 79 -19 199 1 287 14 59 14
72 3 79 -8 5 -54 32 -104 61 -116 69 -123 84 -75 175 72 137 85 140 231 57
l98 -56 55 48 c76 68 169 121 253 147 l73 22 0 91 c0 124 12 135 146 131 64
-2 86 -6 103 -21z"/>
<path d="M1033 1456 c-175 -57 -276 -220 -243 -391 23 -117 90 -202 199 -254
80 -37 192 -37 272 0 273 128 273 502 1 627 -67 30 -167 38 -229 18z m209
-161 c62 -44 90 -105 86 -182 -5 -77 -41 -135 -108 -171 -64 -34 -152 -28
-212 13 -62 44 -90 105 -86 182 5 77 41 135 108 171 64 34 152 28 212 -13z"/>
</g>
</svg>
