<?xml version="1.0" encoding="UTF-8"?>
<!DOCTYPE svg PUBLIC "-//W3C//DTD SVG 1.1//EN" "http://www.w3.org/Graphics/SVG/1.1/DTD/svg11.dtd">
<svg xmlns="http://www.w3.org/2000/svg" version="1.1" width="550px" height="550px" style="shape-rendering:geometricPrecision; text-rendering:geometricPrecision; image-rendering:optimizeQuality; fill-rule:evenodd; clip-rule:evenodd" xmlns:xlink="http://www.w3.org/1999/xlink">
<g><path style="opacity:1" fill="#fefefe" d="M -0.5,-0.5 C 182.833,-0.5 366.167,-0.5 549.5,-0.5C 549.5,182.833 549.5,366.167 549.5,549.5C 366.167,549.5 182.833,549.5 -0.5,549.5C -0.5,366.167 -0.5,182.833 -0.5,-0.5 Z"/></g>
<g><path style="opacity:1" fill="#1b1412" d="M 261.5,18.5 C 371.941,18.6037 453.108,66.937 505,163.5C 542.13,245.967 538.464,326.634 494,405.5C 446.757,479.905 378.923,521.405 290.5,530C 188.638,531.993 110.138,490.493 55,405.5C 10.5827,326.643 6.91603,245.977 44,163.5C 90.2984,76.0859 162.798,27.7526 261.5,18.5 Z"/></g>
<g><path style="opacity:1" fill="#fefefe" d="M 257.5,45.5 C 348.817,42.9035 419.65,79.2368 470,154.5C 509.496,223.122 514.163,294.122 484,367.5C 451.081,437.403 396.915,481.236 321.5,499C 228.227,514.476 151.727,485.976 92,413.5C 45.8348,348.7 34.1681,278.033 57,201.5C 87.8743,118.964 146.374,68.1308 232.5,49C 240.948,47.5784 249.282,46.4117 257.5,45.5 Z"/></g>
<g><path style="opacity:1" fill="#1a1412" d="M 261.5,118.5 C 285.392,116.313 308.059,120.479 329.5,131C 363.637,154.082 373.804,185.249 360,224.5C 356.75,231.34 352.75,237.673 348,243.5C 333.64,257.86 319.306,272.194 305,286.5C 293.434,300.035 288.601,315.701 290.5,333.5C 276.167,333.5 261.833,333.5 247.5,333.5C 244.921,316.393 248.087,300.393 257,285.5C 260.667,280.5 264.333,275.5 268,270.5C 279.333,259.167 290.667,247.833 302,236.5C 306.784,231.044 310.784,225.044 314,218.5C 323.475,192.972 316.308,173.805 292.5,161C 259.346,155.44 231.679,165.273 209.5,190.5C 200.305,182.139 191.638,173.305 183.5,164C 203.938,139.281 229.938,124.115 261.5,118.5 Z"/></g>
<g><path style="opacity:1" fill="#1a1412" d="M 259.5,366.5 C 292.559,364.393 308.059,379.727 306,412.5C 297.687,437.242 280.854,446.076 255.5,439C 231.08,425.604 225.247,406.438 238,381.5C 243.818,374.359 250.985,369.359 259.5,366.5 Z"/></g>
</svg>
