<?xml version="1.0" standalone="no"?>
<!DOCTYPE svg PUBLIC "-//W3C//DTD SVG 20010904//EN"
 "http://www.w3.org/TR/2001/REC-SVG-20010904/DTD/svg10.dtd">
<svg version="1.0" xmlns="http://www.w3.org/2000/svg"
 width="2400.000000pt" height="2400.000000pt" viewBox="0 0 2400.000000 2400.000000"
 preserveAspectRatio="xMidYMid meet">

<g transform="translate(0.000000,2400.000000) scale(0.100000,-0.100000)"
fill="#000000" stroke="none">
<path d="M4965 22233 c-741 -59 -1369 -302 -1930 -749 -141 -113 -406 -378
-519 -519 -433 -544 -690 -1192 -746 -1878 -14 -178 -14 -14004 1 -14172 72
-844 430 -1607 1025 -2185 576 -560 1324 -898 2123 -960 90 -6 1129 -10 3078
-10 2586 0 2955 2 3038 15 757 122 1182 936 845 1620 -65 134 -110 198 -208
299 -186 190 -424 305 -694 335 -67 8 -993 11 -3000 11 -2502 0 -2915 2 -2993
15 -229 37 -448 151 -615 319 -128 130 -216 272 -277 451 -57 167 -53 -352
-53 7180 0 6240 2 6939 16 7019 57 331 270 629 564 794 77 43 217 98 303 119
67 16 262 18 3077 23 2258 5 3019 9 3062 18 232 48 459 171 615 333 94 98 139
163 203 294 126 256 150 522 75 804 -94 348 -374 645 -723 765 -205 71 30 66
-3259 64 -1633 -1 -2986 -3 -3008 -5z"/>
<path d="M16433 17680 c-274 -31 -513 -148 -698 -342 -138 -143 -229 -303
-282 -494 -26 -93 -28 -112 -28 -294 0 -182 2 -201 28 -294 32 -115 88 -239
153 -339 36 -56 349 -375 1398 -1424 l1351 -1353 -4395 -2 -4395 -3 -95 -26
c-140 -39 -245 -82 -335 -138 -339 -209 -545 -576 -545 -971 0 -339 158 -673
415 -879 139 -111 281 -180 480 -234 l80 -22 4395 -2 4395 -3 -1351 -1353
c-1049 -1049 -1362 -1368 -1398 -1424 -65 -100 -121 -224 -153 -339 -26 -93
-28 -112 -28 -294 0 -182 2 -202 28 -295 87 -314 303 -579 592 -722 163 -82
312 -115 505 -115 251 0 453 64 665 210 62 43 589 563 2349 2321 1247 1246
2308 2311 2358 2366 198 222 299 457 315 736 13 226 -57 473 -194 683 -62 95
-205 240 -2397 2432 -1695 1696 -2354 2349 -2416 2394 -95 70 -223 137 -320
168 -147 48 -337 68 -477 52z"/>
</g>
</svg>
