<?xml version="1.0" encoding="UTF-8"?>
<svg version="1.1" xmlns="http://www.w3.org/2000/svg" width="400" height="350">
<path d="M0 0 C132 0 264 0 400 0 C400 115.5 400 231 400 350 C268 350 136 350 0 350 C0 234.5 0 119 0 0 Z " fill="#FEFEFE" transform="translate(0,0)"/>
<path d="M0 0 C1.23200927 -0.00382555 2.46401854 -0.00765109 3.73336142 -0.01159257 C7.14577904 -0.02011967 10.55798095 -0.01969126 13.97039235 -0.01541197 C17.65353154 -0.01294437 21.33664546 -0.02195939 25.01977539 -0.02944946 C32.23300163 -0.04219806 39.44619064 -0.04398991 46.65942625 -0.0416492 C52.5235317 -0.03986587 58.38762586 -0.041616 64.25172997 -0.04587364 C65.08647761 -0.04646883 65.92122526 -0.04706402 66.78126829 -0.04767724 C68.47710151 -0.04888901 70.17293473 -0.05010314 71.86876794 -0.05131962 C87.77250172 -0.06219602 103.6762143 -0.06003234 119.57994928 -0.05393478 C134.12319902 -0.04876691 148.66638176 -0.06001744 163.20961825 -0.07903299 C178.14749193 -0.09841458 193.08533391 -0.10666674 208.02322024 -0.10290974 C216.40770242 -0.10099801 224.79212759 -0.10348247 233.1765995 -0.11762428 C240.31536024 -0.12954321 247.45402887 -0.13093733 254.59279088 -0.11883412 C258.23341146 -0.11294868 261.87386363 -0.11183654 265.51447296 -0.12383652 C269.46537969 -0.13670763 273.41603176 -0.12622262 277.36694336 -0.11352539 C278.51170145 -0.12089968 279.65645955 -0.12827396 280.83590728 -0.13587171 C288.28148933 -0.08554656 295.67993359 0.23047842 301.31144714 5.57319641 C304.43079777 10.93847948 305.12569703 15.63108372 305.14137268 21.79312134 C305.14590379 22.53102077 305.15043491 23.26892021 305.15510333 24.02918023 C305.1677192 26.49093823 305.16612879 28.9524742 305.16447449 31.41426086 C305.17046151 33.18377465 305.17726746 34.95328582 305.18482971 36.72279358 C305.20247948 41.52249028 305.20718467 46.32211565 305.20846128 51.12184167 C305.20988405 54.12272077 305.21415603 57.1235818 305.21945572 60.12445641 C305.23795278 70.59981307 305.24612676 81.07511888 305.24455261 91.55049133 C305.24335138 101.30486524 305.26445101 111.05901781 305.29603994 120.81333572 C305.32221819 129.1965534 305.33291925 137.57969886 305.33164179 145.96295708 C305.33113261 150.96606905 305.33679189 155.96898429 305.35799789 160.97205544 C305.37740628 165.67943575 305.37748697 170.38643219 305.36296463 175.09382629 C305.36087864 176.81710561 305.36556487 178.54040912 305.37768555 180.26364708 C305.50339392 199.38100927 305.50339392 199.38100927 298.56144714 206.69819641 C291.54893873 210.77523619 284.58164873 210.54953587 276.67233276 210.52812195 C275.44425819 210.53265306 274.21618361 210.53718417 272.95089465 210.54185259 C269.55407214 210.55230332 266.1574618 210.5538258 262.76063836 210.55146384 C259.09249052 210.5510549 255.424374 210.56210218 251.75624084 210.57157898 C244.5742365 210.58817287 237.39226499 210.59368779 230.21024307 210.59480374 C224.37095984 210.59575493 218.53168742 210.59986881 212.69240761 210.60620499 C196.12781974 210.62381267 179.56325776 210.63304455 162.99866047 210.63154404 C161.65990955 210.63142417 161.65990955 210.63142417 160.29411316 210.63130188 C159.40051973 210.63122012 158.5069263 210.63113836 157.58625428 210.63105412 C143.10515773 210.63024126 128.6241652 210.64938016 114.14309873 210.67757861 C99.26507816 210.70632088 84.38710829 210.72011818 69.50905925 210.71839106 C61.15974935 210.71772764 52.81054852 210.7231988 44.46126366 210.74474716 C37.35254782 210.7629766 30.2439905 210.76729184 23.13526138 210.75372832 C19.51066095 210.74720762 15.88636447 210.74704857 12.26179314 210.76443481 C8.32655964 210.78311657 4.39176768 210.77058754 0.45651245 210.75517273 C-1.24939583 210.77060342 -1.24939583 210.77060342 -2.9897669 210.78634584 C-9.90360231 210.72658558 -16.12389688 209.9367133 -22.12605286 206.26069641 C-26.67816012 201.00447633 -27.42409131 195.45629908 -27.39347839 188.69030762 C-27.39800951 187.94832463 -27.40254062 187.20634164 -27.40720904 186.44187433 C-27.41982571 183.96629716 -27.41823445 181.49094076 -27.4165802 179.01533508 C-27.42256717 177.23596922 -27.42937311 175.45660596 -27.43693542 173.67724609 C-27.4545857 168.85069082 -27.4592904 164.02420649 -27.460567 159.19762206 C-27.46198973 156.17999203 -27.46626166 153.16237997 -27.47156143 150.14475441 C-27.49005865 139.61104311 -27.49823245 129.0773824 -27.49665833 118.5436554 C-27.49545709 108.73475043 -27.51655682 98.92606557 -27.54814565 89.11721629 C-27.57432339 80.68728992 -27.58502499 72.25743538 -27.58374751 63.82746869 C-27.5832383 58.79641149 -27.5888984 53.76554992 -27.61010361 48.73453331 C-27.62951113 44.00088885 -27.62959327 39.26762614 -27.61507034 34.53396797 C-27.61298425 32.80101334 -27.61767121 31.06803466 -27.62979126 29.33512115 C-27.74458687 11.77849328 -27.74458687 11.77849328 -23.12605286 5.26069641 C-20.75105286 3.32319641 -20.75105286 3.32319641 -18.12605286 2.26069641 C-17.33201207 1.91415921 -16.53797129 1.56762201 -15.71986866 1.21058369 C-10.4772193 -0.17510946 -5.40072772 -0.01772643 0 0 Z " fill="#020202" transform="translate(63.12605285644531,75.73930358886719)"/>
<path d="M0 0 C1.8828125 0.8828125 1.8828125 0.8828125 5.0078125 2.7578125 C9.37798923 5.34615752 14.01056898 6.56324655 18.8828125 7.8828125 C20.46642578 8.41261719 20.46642578 8.41261719 22.08203125 8.953125 C26.70798262 10.08465267 30.95409973 10.18547281 35.6953125 10.1328125 C37.03142578 10.12048584 37.03142578 10.12048584 38.39453125 10.10791016 C48.69043566 9.93241179 55.96836503 8.20828511 65.12109375 3.3203125 C67.66571528 1.9958136 70.20243441 0.89832915 72.8828125 -0.1171875 C73.33495117 0.30989502 73.78708984 0.73697754 74.25292969 1.17700195 C83.401665 9.81451169 92.5832774 18.40761292 101.8828125 26.8828125 C103.86264392 28.69459457 105.84196727 30.50690991 107.8203125 32.3203125 C108.55954956 32.99767456 108.55954956 32.99767456 109.3137207 33.6887207 C113.56111712 37.58279998 117.79484208 41.49158163 122.02709961 45.40209961 C125.63807832 48.73734065 129.25730921 52.06336983 132.8828125 55.3828125 C138.12204519 60.1803381 143.34527709 64.99496186 148.5625 69.81640625 C150.85676194 71.9364464 153.15397748 74.05322811 155.453125 76.16796875 C156.03779541 76.70623291 156.62246582 77.24449707 157.22485352 77.79907227 C158.33931095 78.82496773 159.45434608 79.85023613 160.57006836 80.87475586 C163.40810459 83.48896223 166.15218567 86.15218567 168.8828125 88.8828125 C81.4328125 88.8828125 -6.0171875 88.8828125 -96.1171875 88.8828125 C-94.36371076 85.37585902 -93.19652897 83.71539549 -90.4921875 81.0703125 C-89.54472656 80.13251953 -89.54472656 80.13251953 -88.578125 79.17578125 C-86.52884831 77.26637582 -84.44967535 75.41871828 -82.3359375 73.58203125 C-78.20823776 69.98936815 -74.21685906 66.26813727 -70.2421875 62.5078125 C-65.12675179 57.68888968 -59.97408284 52.92568885 -54.73046875 48.24609375 C-51.36612533 45.20360082 -48.05393569 42.10734353 -44.7421875 39.0078125 C-38.23982459 32.92212166 -31.69180816 26.89034998 -25.1171875 20.8828125 C-23.60112707 19.49284417 -22.08580577 18.10207782 -20.57104492 16.71069336 C-19.57024935 15.7930423 -18.5678382 14.8771497 -17.5637207 13.96313477 C-15.02798349 11.65301925 -12.52329322 9.31952367 -10.05859375 6.93359375 C-9.3171814 6.22795288 -9.3171814 6.22795288 -8.56079102 5.50805664 C-7.19687879 4.20873014 -5.84416514 2.89767771 -4.4921875 1.5859375 C-2.1171875 -0.1171875 -2.1171875 -0.1171875 0 0 Z " fill="#FDFDFD" transform="translate(166.1171875,179.1171875)"/>
<path d="M0 0 C84.15 0 168.3 0 255 0 C252.11583875 2.88416125 249.89362364 4.90533141 246.60546875 7.109375 C245.744375 7.69074219 244.88328125 8.27210937 243.99609375 8.87109375 C243.06925781 9.49113281 242.14242187 10.11117187 241.1875 10.75 C239.1907277 12.09795372 237.19465568 13.44694526 235.19921875 14.796875 C234.17231934 15.49103516 233.14541992 16.18519531 232.08740234 16.90039062 C227.19661958 20.22640136 222.34838051 23.61261033 217.5 27 C207.19924196 34.18708403 196.83051998 41.27069481 186.4453125 48.33496094 C175.12031225 56.04627301 163.86811574 63.86184755 152.62719727 71.69506836 C151.68158936 72.35385986 150.73598145 73.01265137 149.76171875 73.69140625 C148.91569092 74.28123291 148.06966309 74.87105957 147.19799805 75.47875977 C137.80695171 81.97832766 124.00784269 80.76789002 113 79 C106.55078362 76.68000307 101.55862452 72.37694311 96.40332031 67.9765625 C91.9892779 64.34632201 87.21779447 61.21819593 82.5 58 C80.5403933 56.63724591 78.58204501 55.27268036 76.625 53.90625 C71.60102562 50.4113113 66.55608833 46.94826084 61.5 43.5 C50.61515848 36.07401165 39.80953893 28.53498235 29 21 C24.8131307 18.08242678 20.62547783 15.16598169 16.4375 12.25 C15.00132324 11.24876099 15.00132324 11.24876099 13.53613281 10.22729492 C7.98168966 6.3594098 7.98168966 6.3594098 2.34765625 2.609375 C1.57292969 2.07828125 0.79820313 1.5471875 0 1 C0 0.67 0 0.34 0 0 Z " fill="#FBFBFB" transform="translate(74,93)"/>
<path d="M0 0 C0 49.83 0 99.66 0 151 C-4.80757254 149.07697098 -6.39276799 147.92006867 -9.8125 144.3125 C-13.3544368 140.59722208 -17.03230557 137.18545433 -20.90991211 133.83178711 C-24.31290422 130.84934933 -27.58836642 127.73439142 -30.875 124.625 C-35.98775667 119.80860094 -41.13708222 115.04718972 -46.37890625 110.37109375 C-49.78917614 107.2860955 -53.14388483 104.14368706 -56.5 101 C-61.39360857 96.4164431 -66.32584529 91.88699716 -71.328125 87.421875 C-75.48456037 83.65434587 -79.56798159 79.80855029 -83.6484375 75.95898438 C-87.33085458 72.4998628 -91.08519033 69.19429255 -95 66 C-93.62308168 61.86924503 -90.76687488 60.60814869 -87.25 58.375 C-85.86783215 57.47627068 -84.48633253 56.57651293 -83.10546875 55.67578125 C-82.41114746 55.22541504 -81.71682617 54.77504883 -81.00146484 54.31103516 C-78.15214303 52.44462162 -75.35782133 50.50905375 -72.5625 48.5625 C-71.50804687 47.82902344 -70.45359375 47.09554687 -69.3671875 46.33984375 C-68.82416992 45.9619873 -68.28115234 45.58413086 -67.72167969 45.19482422 C-64.55088546 42.99433259 -61.36875075 40.81033421 -58.1875 38.625 C-57.51090332 38.1599707 -56.83430664 37.69494141 -56.13720703 37.21582031 C-52.83743558 34.94815665 -49.53663582 32.68200568 -46.234375 30.41796875 C-37.17924779 24.20589377 -28.15868636 17.94535717 -19.15600586 11.6574707 C-16.4419052 9.7649382 -13.72295707 7.87976436 -11 6 C-10.13487793 5.4013916 -9.26975586 4.8027832 -8.37841797 4.18603516 C-7.57162598 3.63608887 -6.76483398 3.08614258 -5.93359375 2.51953125 C-5.22130615 2.03202393 -4.50901855 1.5445166 -3.77514648 1.04223633 C-2 0 -2 0 0 0 Z " fill="#FBFBFB" transform="translate(349,103)"/>
<path d="M0 0 C3.57524242 1.43009697 5.91334269 2.44944264 8.94140625 4.546875 C9.67939453 5.05476563 10.41738281 5.56265625 11.17773438 6.0859375 C11.96470703 6.63507813 12.75167969 7.18421875 13.5625 7.75 C14.39458984 8.32492188 15.22667969 8.89984375 16.08398438 9.4921875 C22.91536443 14.22042359 29.71663467 18.99229194 36.51586914 23.76660156 C42.92242805 28.26107966 49.37288435 32.6878777 55.84008789 37.09448242 C61.73908871 41.12045401 67.59411713 45.20630937 73.4375 49.3125 C80.55742094 54.31513067 87.71839954 59.2343997 95 64 C93.61106309 67.22447451 92.06112891 69.05850848 89.3671875 71.2890625 C85.15501896 74.8552512 81.13343004 78.58273728 77.125 82.375 C72.01224333 87.19139906 66.86291778 91.95281028 61.62109375 96.62890625 C58.21082386 99.7139045 54.85611517 102.85631294 51.5 106 C46.6010247 110.5885836 41.66221572 115.12175395 36.65625 119.59375 C32.57411257 123.29168626 28.56378675 127.06584421 24.54492188 130.83227539 C20.13589792 134.95816645 15.66703642 139.00883759 11.15625 143.0234375 C8.44883985 145.50523014 5.89469936 148.11403265 3.375 150.78515625 C2 152 2 152 0 152 C0 101.84 0 51.68 0 0 Z " fill="#FDFDFD" transform="translate(54,103)"/>
<path d="M0 0 C0.33 0 0.66 0 1 0 C1 49.17 1 98.34 1 149 C1.99 149.33 2.98 149.66 4 150 C2.02 150.99 2.02 150.99 0 152 C0 101.84 0 51.68 0 0 Z " fill="#939393" transform="translate(54,103)"/>
</svg>
